<?xml version="1.0" encoding="UTF-8"?>
<!DOCTYPE svg PUBLIC "-//W3C//DTD SVG 1.1//EN" "http://www.w3.org/Graphics/SVG/1.1/DTD/svg11.dtd">
<svg xmlns="http://www.w3.org/2000/svg" version="1.1" width="1632px" height="2354px" style="shape-rendering:geometricPrecision; text-rendering:geometricPrecision; image-rendering:optimizeQuality; fill-rule:evenodd; clip-rule:evenodd" xmlns:xlink="http://www.w3.org/1999/xlink">
<g><path style="opacity:1" fill="#19488e" d="M 808.5,-0.5 C 813.167,-0.5 817.833,-0.5 822.5,-0.5C 830.748,1.91348 836.248,7.24681 839,15.5C 840.287,36.1158 840.954,56.7825 841,77.5C 938.26,160.215 1035.43,243.048 1132.5,326C 1169.14,334.658 1204.14,347.658 1237.5,365C 1248.67,371.168 1259,378.501 1268.5,387C 1288.69,406.327 1290.86,427.494 1275,450.5C 1265.18,460.82 1254.01,469.32 1241.5,476C 1225.18,483.993 1208.52,491.159 1191.5,497.5C 1190.5,522.158 1190.17,546.824 1190.5,571.5C 1337.5,571.5 1484.5,571.5 1631.5,571.5C 1631.5,578.833 1631.5,586.167 1631.5,593.5C 1087.5,593.5 543.5,593.5 -0.5,593.5C -0.5,586.167 -0.5,578.833 -0.5,571.5C 146.833,571.5 294.167,571.5 441.5,571.5C 441.833,546.824 441.5,522.158 440.5,497.5C 414.713,489.106 390.713,477.272 368.5,462C 336.939,433.495 337.939,406.161 371.5,380C 392.61,364.61 415.61,352.61 440.5,344C 460.327,337.057 480.327,330.724 500.5,325C 597.039,242.125 693.873,159.625 791,77.5C 791.333,57.5 791.667,37.5 792,17.5C 794.619,8.71947 800.119,2.71947 808.5,-0.5 Z M 601.5,355.5 C 611.658,354.341 621.992,354.175 632.5,355C 631.475,357.071 630.642,359.238 630,361.5C 629.333,381.167 629.333,400.833 630,420.5C 642.086,399.996 653.92,379.33 665.5,358.5C 664.754,357.264 664.421,355.93 664.5,354.5C 675.505,354.333 686.505,354.5 697.5,355C 683.182,375.128 670.516,396.295 659.5,418.5C 670.234,445.201 681.067,471.868 692,498.5C 695.025,502.024 697.858,505.691 700.5,509.5C 688.848,510.666 677.181,510.833 665.5,510C 667.886,506.616 668.053,503.116 666,499.5C 658.595,481.783 651.095,464.116 643.5,446.5C 638.44,453.415 633.94,460.748 630,468.5C 629.333,479.833 629.333,491.167 630,502.5C 630.735,504.871 631.568,507.205 632.5,509.5C 622.183,510.666 611.849,510.832 601.5,510C 602.525,507.929 603.358,505.762 604,503.5C 604.667,456.167 604.667,408.833 604,361.5C 603.434,359.277 602.6,357.277 601.5,355.5 Z M 729.5,354.5 C 755.167,354.5 780.833,354.5 806.5,354.5C 807.725,363.516 809.058,372.516 810.5,381.5C 801.113,379.922 791.613,379.256 782,379.5C 774.5,379.667 767,379.833 759.5,380C 758.667,380.833 757.833,381.667 757,382.5C 756.333,393.5 756.333,404.5 757,415.5C 757.833,416.333 758.667,417.167 759.5,418C 767.618,419.231 775.451,418.398 783,415.5C 783.5,425.828 783.666,436.161 783.5,446.5C 775.729,443.748 767.729,442.914 759.5,444C 758.667,444.833 757.833,445.667 757,446.5C 756.333,458.167 756.333,469.833 757,481.5C 757.833,482.333 758.667,483.167 759.5,484C 774.5,484.667 789.5,484.667 804.5,484C 806.436,483.187 808.436,482.687 810.5,482.5C 809.167,491.833 807.833,501.167 806.5,510.5C 780.833,510.5 755.167,510.5 729.5,510.5C 729.687,508.436 730.187,506.436 731,504.5C 731.667,456.5 731.667,408.5 731,360.5C 730.187,358.564 729.687,356.564 729.5,354.5 Z M 839.5,354.5 C 865.175,354.167 890.842,354.5 916.5,355.5C 918.823,364.083 919.823,372.75 919.5,381.5C 917.885,380.846 916.218,380.346 914.5,380C 899.5,379.333 884.5,379.333 869.5,380C 869,380.5 868.5,381 868,381.5C 867.333,393.167 867.333,404.833 868,416.5C 868.5,417 869,417.5 869.5,418C 877.618,419.231 885.451,418.398 893,415.5C 893.5,425.828 893.666,436.161 893.5,446.5C 886.064,443.777 878.397,442.944 870.5,444C 869.667,444.833 868.833,445.667 868,446.5C 867.333,458.5 867.333,470.5 868,482.5C 868.5,483 869,483.5 869.5,484C 884.5,484.667 899.5,484.667 914.5,484C 916.218,483.654 917.885,483.154 919.5,482.5C 919.833,483.667 920.167,484.833 920.5,486C 919.219,494.188 917.885,502.355 916.5,510.5C 890.825,510.833 865.158,510.5 839.5,509.5C 840.432,507.205 841.265,504.871 842,502.5C 842.667,455.833 842.667,409.167 842,362.5C 841.059,359.846 840.226,357.179 839.5,354.5 Z M 949.5,355.5 C 971.996,354.337 994.663,354.17 1017.5,355C 1021.97,358.465 1026.13,362.298 1030,366.5C 1030.67,390.5 1030.67,414.5 1030,438.5C 1025.83,442.667 1021.67,446.833 1017.5,451C 1004.83,451.333 992.167,451.667 979.5,452C 979,452.5 978.5,453 978,453.5C 977.333,469.833 977.333,486.167 978,502.5C 978.735,504.871 979.568,507.205 980.5,509.5C 970.183,510.666 959.849,510.832 949.5,510C 950.525,507.929 951.358,505.762 952,503.5C 952.667,456.167 952.667,408.833 952,361.5C 951.434,359.277 950.6,357.277 949.5,355.5 Z"/></g>
<g><path style="opacity:1" fill="#19488e" d="M 980.5,379.5 C 987.841,379.334 995.174,379.5 1002.5,380C 1003,380.5 1003.5,381 1004,381.5C 1004.67,395.5 1004.67,409.5 1004,423.5C 1003.5,424 1003,424.5 1002.5,425C 994.833,425.667 987.167,425.667 979.5,425C 979,424.5 978.5,424 978,423.5C 977.333,409.833 977.333,396.167 978,382.5C 979.045,381.627 979.878,380.627 980.5,379.5 Z"/></g>
<g><path style="opacity:1" fill="#19488e" d="M -0.5,640.5 C 34.1683,640.333 68.8349,640.5 103.5,641C 110,648.833 116.5,656.667 123,664.5C 123.667,711.5 123.667,758.5 123,805.5C 116.377,814.579 109.877,823.746 103.5,833C 109.12,862.102 114.62,891.269 120,920.5C 122.014,927.558 124.181,934.558 126.5,941.5C 126.392,942.442 126.059,943.275 125.5,944C 109.48,947.839 93.4796,951.672 77.5,955.5C 78.3355,948.653 79.3355,941.819 80.5,935C 75.0002,904.834 69.5002,874.667 64,844.5C 63.028,842.695 61.8613,841.028 60.5,839.5C 57.1981,840.258 53.8647,840.925 50.5,841.5C 47.7758,843.066 45.9424,845.399 45,848.5C 44.3333,880.833 44.3333,913.167 45,945.5C 46.5779,950.978 48.0779,956.478 49.5,962C 49.0946,962.945 48.428,963.612 47.5,964C 31.5635,968.817 15.5635,973.317 -0.5,977.5C -0.5,977.167 -0.5,976.833 -0.5,976.5C 1.17008,970.339 2.67008,964.006 4,957.5C 4.66667,858.5 4.66667,759.5 4,660.5C 2.79855,654.295 1.29855,648.295 -0.5,642.5C -0.5,641.833 -0.5,641.167 -0.5,640.5 Z M 73.5,694.5 C 78.0479,694.199 81.2146,696.199 83,700.5C 83.6667,726.167 83.6667,751.833 83,777.5C 81.413,780.756 78.913,782.923 75.5,784C 66.779,784.913 58.1123,786.08 49.5,787.5C 48.0095,785.874 46.5095,784.208 45,782.5C 44.3333,755.5 44.3333,728.5 45,701.5C 46.1667,699 48,697.167 50.5,696C 58.3443,695.829 66.011,695.329 73.5,694.5 Z"/></g>
<g><path style="opacity:1" fill="#19488e" d="M 195.5,640.5 C 222.169,640.333 248.835,640.5 275.5,641C 282.022,647.887 288.188,655.054 294,662.5C 294.667,738.5 294.667,814.5 294,890.5C 287.833,898.667 281.667,906.833 275.5,915C 248.53,919.863 221.53,924.196 194.5,928C 187.968,921.802 181.801,915.302 176,908.5C 175.333,827.167 175.333,745.833 176,664.5C 182.713,656.626 189.213,648.626 195.5,640.5 Z M 236.5,688.5 C 240.846,688.334 245.179,688.501 249.5,689C 250.667,690.167 251.833,691.333 253,692.5C 253.667,750.833 253.667,809.167 253,867.5C 251.68,869.654 249.847,871.154 247.5,872C 238.576,873.226 229.743,874.726 221,876.5C 219.667,875.167 218.333,873.833 217,872.5C 216.333,812.833 216.333,753.167 217,693.5C 218.167,692.333 219.333,691.167 220.5,690C 226.016,689.827 231.349,689.327 236.5,688.5 Z"/></g>
<g><path style="opacity:1" fill="#19488e" d="M 344.5,640.5 C 361.18,640.167 377.847,640.501 394.5,641.5C 393.001,646.161 391.501,650.828 390,655.5C 389.333,720.833 389.333,786.167 390,851.5C 392.219,853.995 395.052,854.995 398.5,854.5C 406.863,853.942 415.196,853.109 423.5,852C 425,850.5 426.5,849 428,847.5C 428.667,784.5 428.667,721.5 428,658.5C 426.32,652.78 424.487,647.113 422.5,641.5C 439.5,640.167 456.5,640.167 473.5,641.5C 472.001,646.161 470.501,650.828 469,655.5C 468.667,727.5 468.333,799.5 468,871.5C 461.5,878.667 455,885.833 448.5,893C 421.542,896.396 394.542,899.062 367.5,901C 361.667,895.167 355.833,889.333 350,883.5C 349.667,808.167 349.333,732.833 349,657.5C 347.188,651.9 345.688,646.233 344.5,640.5 Z"/></g>
<g><path style="opacity:1" fill="#19488e" d="M 519.5,640.5 C 534.745,640.176 549.911,640.509 565,641.5C 582.941,688.658 601.275,735.658 620,782.5C 620.667,740.167 620.667,697.833 620,655.5C 618.499,650.828 616.999,646.161 615.5,641.5C 632.5,640.167 649.5,640.167 666.5,641.5C 664.901,645.796 663.401,650.129 662,654.5C 661.333,725.167 661.333,795.833 662,866.5C 663.308,870.76 664.808,874.926 666.5,879C 654.32,880.362 641.987,881.195 629.5,881.5C 626.5,881.167 623.5,880.833 620.5,880.5C 601.51,834.032 583.01,787.365 565,740.5C 564.333,783.5 564.333,826.5 565,869.5C 566.81,874.429 568.31,879.429 569.5,884.5C 552.82,885.49 536.154,886.323 519.5,887C 521.072,882.553 522.572,878.053 524,873.5C 524.667,800.5 524.667,727.5 524,654.5C 522.393,649.846 520.893,645.18 519.5,640.5 Z"/></g>
<g><path style="opacity:1" fill="#19488e" d="M 713.5,640.5 C 748.168,640.333 782.835,640.5 817.5,641C 823.698,647.532 830.198,653.699 837,659.5C 837.667,725.833 837.667,792.167 837,858.5C 830.802,865.032 824.302,871.199 817.5,877C 782.836,877.738 748.169,878.238 713.5,878.5C 714.506,874.142 715.673,869.809 717,865.5C 717.667,795.167 717.667,724.833 717,654.5C 715.52,649.898 714.354,645.231 713.5,640.5 Z M 762.5,680.5 C 772.506,680.334 782.506,680.5 792.5,681C 793.667,682.167 794.833,683.333 796,684.5C 796.667,733.833 796.667,783.167 796,832.5C 794.457,834.378 792.624,835.878 790.5,837C 781.167,837.667 771.833,837.667 762.5,837C 761.333,835.833 760.167,834.667 759,833.5C 758.333,783.833 758.333,734.167 759,684.5C 760.376,683.295 761.542,681.962 762.5,680.5 Z"/></g>
<g><path style="opacity:1" fill="#19488e" d="M 961.5,640.5 C 996.168,640.333 1030.83,640.5 1065.5,641C 1072,647.5 1078.5,654 1085,660.5C 1085.67,698.167 1085.67,735.833 1085,773.5C 1078.32,780.014 1071.82,786.681 1065.5,793.5C 1070.49,815.121 1075.32,836.788 1080,858.5C 1082.54,867.942 1085.37,877.275 1088.5,886.5C 1071.82,885.44 1055.15,884.107 1038.5,882.5C 1039.83,877.833 1041.17,873.167 1042.5,868.5C 1036.85,844.88 1031.35,821.213 1026,797.5C 1025.64,795.579 1024.81,793.912 1023.5,792.5C 1019.49,791.773 1015.49,791.107 1011.5,790.5C 1009.85,791.648 1008.35,792.981 1007,794.5C 1006.33,819.167 1006.33,843.833 1007,868.5C 1008.31,872.76 1009.81,876.926 1011.5,881C 994.838,881.024 978.172,880.857 961.5,880.5C 962.69,875.429 964.19,870.429 966,865.5C 966.667,795.833 966.667,726.167 966,656.5C 964.391,651.177 962.891,645.844 961.5,640.5 Z M 1009.5,682.5 C 1019.84,682.334 1030.17,682.5 1040.5,683C 1041.67,684.167 1042.83,685.333 1044,686.5C 1044.67,706.833 1044.67,727.167 1044,747.5C 1043.17,748.333 1042.33,749.167 1041.5,750C 1031.17,750.667 1020.83,750.667 1010.5,750C 1009.33,748.833 1008.17,747.667 1007,746.5C 1006.33,726.167 1006.33,705.833 1007,685.5C 1008.04,684.627 1008.88,683.627 1009.5,682.5 Z"/></g>
<g><path style="opacity:1" fill="#19488e" d="M 1157.5,640.5 C 1183.84,640.333 1210.17,640.5 1236.5,641C 1243.37,647.531 1249.87,654.364 1256,661.5C 1256.67,734.5 1256.67,807.5 1256,880.5C 1249.83,886.667 1243.67,892.833 1237.5,899C 1210.5,896.704 1183.5,894.038 1156.5,891C 1150.33,884.167 1144.17,877.333 1138,870.5C 1137.33,800.5 1137.33,730.5 1138,660.5C 1144.7,653.965 1151.2,647.298 1157.5,640.5 Z M 1181.5,684.5 C 1191.51,684.334 1201.51,684.5 1211.5,685C 1212.3,686.771 1213.47,688.271 1215,689.5C 1215.67,742.833 1215.67,796.167 1215,849.5C 1213.67,850.833 1212.33,852.167 1211,853.5C 1201.2,852.418 1191.37,851.251 1181.5,850C 1180.33,848.833 1179.17,847.667 1178,846.5C 1177.33,793.833 1177.33,741.167 1178,688.5C 1179.38,687.295 1180.54,685.962 1181.5,684.5 Z"/></g>
<g><path style="opacity:1" fill="#19488e" d="M 1328.5,640.5 C 1354.84,640.333 1381.17,640.5 1407.5,641C 1414.37,648.205 1420.87,655.705 1427,663.5C 1427.33,680.5 1427.67,697.5 1428,714.5C 1429.2,719.926 1430.7,725.259 1432.5,730.5C 1430.5,730.833 1428.5,731.167 1426.5,731.5C 1412.51,730.556 1398.51,729.723 1384.5,729C 1383.48,728.481 1382.82,727.647 1382.5,726.5C 1385.53,718.586 1387.2,710.419 1387.5,702C 1388.18,696.899 1387.02,692.399 1384,688.5C 1374.9,687.733 1365.73,687.066 1356.5,686.5C 1353.25,686.935 1350.75,688.602 1349,691.5C 1348.33,748.5 1348.33,805.5 1349,862.5C 1350.14,864.609 1351.64,866.442 1353.5,868C 1363.47,869.663 1373.47,870.663 1383.5,871C 1387.02,867.679 1388.35,863.513 1387.5,858.5C 1386.5,849.03 1385,839.697 1383,830.5C 1399.38,833.19 1415.88,835.19 1432.5,836.5C 1431.16,842.191 1429.66,847.858 1428,853.5C 1427.67,870.5 1427.33,887.5 1427,904.5C 1420.33,911.167 1413.67,917.833 1407,924.5C 1380.92,919.737 1354.76,915.237 1328.5,911C 1322,903.167 1315.5,895.333 1309,887.5C 1308.33,812.5 1308.33,737.5 1309,662.5C 1315.71,655.295 1322.21,647.962 1328.5,640.5 Z"/></g>
<g><path style="opacity:1" fill="#19488e" d="M 1631.5,973.5 C 1631.5,974.5 1631.5,975.5 1631.5,976.5C 1612.63,971.264 1593.79,965.931 1575,960.5C 1575.1,955.922 1575.93,951.422 1577.5,947C 1566.2,906.95 1554.37,867.117 1542,827.5C 1536,840.167 1530,852.833 1524,865.5C 1523.33,887.167 1523.33,908.833 1524,930.5C 1525.12,936.461 1526.62,942.295 1528.5,948C 1511.82,945.166 1495.15,941.999 1478.5,938.5C 1479.68,932.441 1481.18,926.441 1483,920.5C 1483.67,833.5 1483.67,746.5 1483,659.5C 1481.34,653.183 1479.84,646.849 1478.5,640.5C 1495.17,640.333 1511.84,640.5 1528.5,641C 1526.93,646.779 1525.43,652.612 1524,658.5C 1523.33,694.167 1523.33,729.833 1524,765.5C 1541.48,727.397 1557.98,688.897 1573.5,650C 1572.52,646.888 1571.85,643.722 1571.5,640.5C 1590.18,640.167 1608.85,640.5 1627.5,641.5C 1621.75,651.339 1616.25,661.339 1611,671.5C 1596.55,704.738 1582.38,738.072 1568.5,771.5C 1584.64,827.74 1600.47,884.074 1616,940.5C 1620.51,951.901 1625.68,962.901 1631.5,973.5 Z"/></g>
<g><path style="opacity:1" fill="#19488e" d="M 1631.5,1029.5 C 1631.5,1037.83 1631.5,1046.17 1631.5,1054.5C 1597.28,1036.26 1561.28,1022.42 1523.5,1013C 1465.49,998.108 1406.82,986.442 1347.5,978C 1295.3,970.6 1242.96,964.433 1190.5,959.5C 1190.17,1056.84 1190.5,1154.17 1191.5,1251.5C 1225.43,1262.31 1258.1,1276.15 1289.5,1293C 1290.67,1294.17 1291.83,1295.33 1293,1296.5C 1293.67,1359.17 1293.67,1421.83 1293,1484.5C 1289.22,1493.28 1283.06,1499.78 1274.5,1504C 1263.62,1509.77 1252.29,1514.44 1240.5,1518C 1224.11,1522.72 1207.61,1526.89 1191,1530.5C 1190.86,1588.86 1178.36,1644.36 1153.5,1697C 1200.74,1915.69 1247.41,2134.52 1293.5,2353.5C 1265.5,2353.5 1237.5,2353.5 1209.5,2353.5C 1169.28,2166.22 1129.11,1978.89 1089,1791.5C 1073.37,1807.47 1056.87,1822.3 1039.5,1836C 1056.26,2008.45 1072.6,2180.95 1088.5,2353.5C 1061.17,2353.5 1033.83,2353.5 1006.5,2353.5C 991.56,2195.82 976.56,2038.16 961.5,1880.5C 864.831,1919.09 768.164,1919.09 671.5,1880.5C 670.719,1881.73 670.219,1883.06 670,1884.5C 655.298,2040.86 640.464,2197.19 625.5,2353.5C 598.167,2353.5 570.833,2353.5 543.5,2353.5C 559.414,2181.11 575.748,2008.77 592.5,1836.5C 575.596,1822.6 559.263,1807.94 543.5,1792.5C 502.99,1979.38 462.99,2166.38 423.5,2353.5C 395.167,2353.5 366.833,2353.5 338.5,2353.5C 384.973,2134.97 431.64,1916.47 478.5,1698C 453.408,1645.05 440.741,1589.21 440.5,1530.5C 417.013,1525.71 394.013,1519.21 371.5,1511C 359.345,1506.49 349.178,1499.32 341,1489.5C 339.438,1487.04 338.438,1484.38 338,1481.5C 337.011,1419.44 337.345,1357.44 339,1295.5C 371.3,1277.44 405.133,1262.77 440.5,1251.5C 441.5,1154.17 441.833,1056.84 441.5,959.5C 347.377,967.541 254.044,981.041 161.5,1000C 112.632,1009.85 65.2987,1024.51 19.5,1044C 12.6917,1047.33 6.02501,1050.83 -0.5,1054.5C -0.5,1046.17 -0.5,1037.83 -0.5,1029.5C 45.2984,1008.29 92.965,992.461 142.5,982C 237.231,961.514 332.898,947.181 429.5,939C 641.925,920.805 854.591,917.471 1067.5,929C 1182.21,934.871 1296.21,947.204 1409.5,966C 1469.72,975.806 1528.72,990.472 1586.5,1010C 1601.98,1015.44 1616.98,1021.94 1631.5,1029.5 Z M 617.5,999.5 C 634.837,999.333 652.17,999.5 669.5,1000C 673.667,1004.17 677.833,1008.33 682,1012.5C 682.333,1022.17 682.667,1031.83 683,1041.5C 683.642,1043.76 684.475,1045.93 685.5,1048C 675.172,1048.5 664.839,1048.67 654.5,1048.5C 655.022,1045.43 655.855,1042.43 657,1039.5C 657.827,1035.46 657.66,1031.46 656.5,1027.5C 655.692,1027.19 655.025,1026.69 654.5,1026C 646.833,1025.33 639.167,1025.33 631.5,1026C 631,1026.5 630.5,1027 630,1027.5C 629.333,1039.17 629.333,1050.83 630,1062.5C 630.833,1063.33 631.667,1064.17 632.5,1065C 645.167,1065.33 657.833,1065.67 670.5,1066C 674.333,1069.83 678.167,1073.67 682,1077.5C 682.667,1099.17 682.667,1120.83 682,1142.5C 677.817,1146.38 673.984,1150.55 670.5,1155C 652.833,1155.67 635.167,1155.67 617.5,1155C 613.033,1151.53 608.867,1147.7 605,1143.5C 604.667,1134.17 604.333,1124.83 604,1115.5C 603.548,1112.85 602.714,1110.35 601.5,1108C 611.849,1107.17 622.183,1107.33 632.5,1108.5C 629.744,1114.57 628.91,1120.9 630,1127.5C 630.833,1128.33 631.667,1129.17 632.5,1130C 639.833,1130.67 647.167,1130.67 654.5,1130C 655.333,1129.17 656.167,1128.33 657,1127.5C 657.667,1116.17 657.667,1104.83 657,1093.5C 656.167,1092.67 655.333,1091.83 654.5,1091C 642.167,1090.67 629.833,1090.33 617.5,1090C 613.333,1085.83 609.167,1081.67 605,1077.5C 604.333,1055.5 604.333,1033.5 605,1011.5C 609.669,1008 613.836,1004 617.5,999.5 Z M 741.5,1000.5 C 752.654,999.505 763.988,999.172 775.5,999.5C 774.035,1003.39 773.535,1007.39 774,1011.5C 784,1054.17 794,1096.83 804,1139.5C 805.27,1144.71 807.104,1149.71 809.5,1154.5C 799.5,1155.83 789.5,1155.83 779.5,1154.5C 780.304,1153.06 780.971,1151.56 781.5,1150C 779.407,1141.8 777.241,1133.63 775,1125.5C 774.167,1124.67 773.333,1123.83 772.5,1123C 763.167,1122.33 753.833,1122.33 744.5,1123C 744,1123.5 743.5,1124 743,1124.5C 740.677,1132.79 738.511,1141.12 736.5,1149.5C 736.875,1151.46 737.541,1153.29 738.5,1155C 728.167,1155.67 717.833,1155.67 707.5,1155C 709.127,1152.25 710.627,1149.41 712,1146.5C 722.833,1100.5 733.667,1054.5 744.5,1008.5C 743.866,1005.58 742.866,1002.92 741.5,1000.5 Z M 838.5,999.5 C 864.167,999.5 889.833,999.5 915.5,999.5C 916.725,1008.52 918.058,1017.52 919.5,1026.5C 902.597,1024.44 885.597,1023.94 868.5,1025C 867.667,1025.83 866.833,1026.67 866,1027.5C 865.333,1039.17 865.333,1050.83 866,1062.5C 866.5,1063 867,1063.5 867.5,1064C 873.5,1064.67 879.5,1064.67 885.5,1064C 887.762,1063.36 889.929,1062.52 892,1061.5C 892.667,1072.17 892.667,1082.83 892,1093.5C 887.145,1091.09 881.978,1090.09 876.5,1090.5C 873.5,1090.67 870.5,1090.83 867.5,1091C 867,1091.5 866.5,1092 866,1092.5C 865.333,1110.83 865.333,1129.17 866,1147.5C 866.735,1149.87 867.568,1152.2 868.5,1154.5C 858.522,1155.5 848.522,1155.83 838.5,1155.5C 838.687,1153.44 839.187,1151.44 840,1149.5C 840.667,1101.5 840.667,1053.5 840,1005.5C 839.187,1003.56 838.687,1001.56 838.5,999.5 Z M 1029.5,1026.5 C 1012.6,1024.44 995.597,1023.94 978.5,1025C 978,1025.5 977.5,1026 977,1026.5C 976.333,1038.17 976.333,1049.83 977,1061.5C 979.573,1064.03 982.739,1065.03 986.5,1064.5C 992,1064.33 997.333,1063.33 1002.5,1061.5C 1002.67,1071.84 1002.5,1082.17 1002,1092.5C 994.451,1089.6 986.618,1088.77 978.5,1090C 978,1090.5 977.5,1091 977,1091.5C 976.333,1103.83 976.333,1116.17 977,1128.5C 977.5,1129 978,1129.5 978.5,1130C 992.833,1130.67 1007.17,1130.67 1021.5,1130C 1024.05,1129.24 1026.55,1128.41 1029,1127.5C 1028.6,1136.9 1027.43,1146.24 1025.5,1155.5C 999.825,1155.83 974.158,1155.5 948.5,1154.5C 949.432,1152.2 950.265,1149.87 951,1147.5C 951.667,1100.83 951.667,1054.17 951,1007.5C 950.265,1005.13 949.432,1002.8 948.5,1000.5C 974.158,999.5 999.825,999.167 1025.5,999.5C 1027.16,1008.45 1028.49,1017.45 1029.5,1026.5 Z M 918.5,1856.5 C 1014.44,1788.88 1068.6,1696.22 1081,1578.5C 1082.76,1521.51 1082.93,1464.51 1081.5,1407.5C 993.427,1395.63 904.927,1389.96 816,1390.5C 713.877,1389.73 612.377,1397.23 511.5,1413C 488.475,1417.44 465.475,1421.94 442.5,1426.5C 442.5,1421.83 442.5,1417.17 442.5,1412.5C 453.533,1409.99 464.533,1407.33 475.5,1404.5C 466.864,1388.55 457.864,1372.89 448.5,1357.5C 446.398,1361.37 444.564,1365.37 443,1369.5C 442.333,1351.5 442.333,1333.5 443,1315.5C 443.837,1317.84 445.171,1319.84 447,1321.5C 455.954,1301.09 464.787,1280.59 473.5,1260C 473.167,1259.5 472.833,1259 472.5,1258.5C 462.773,1261.3 453.106,1264.3 443.5,1267.5C 442.338,1262.53 442.171,1257.53 443,1252.5C 503.801,1233.47 565.968,1220.97 629.5,1215C 712.652,1206.97 795.986,1204.3 879.5,1207C 965.505,1208.59 1050.51,1218.59 1134.5,1237C 1152.67,1241.39 1170.67,1246.39 1188.5,1252C 1189.47,1257.07 1189.8,1262.24 1189.5,1267.5C 1178.94,1264.03 1168.27,1261.19 1157.5,1259C 1166.36,1279.23 1175.02,1299.57 1183.5,1320C 1183.85,1321.26 1184.52,1321.59 1185.5,1321C 1186.79,1318.91 1187.96,1316.75 1189,1314.5C 1189.67,1333.17 1189.67,1351.83 1189,1370.5C 1187.33,1366.5 1185.67,1362.5 1184,1358.5C 1183.11,1357.29 1182.27,1357.29 1181.5,1358.5C 1173.17,1373.83 1164.83,1389.17 1156.5,1404.5C 1167.44,1407.42 1178.44,1410.09 1189.5,1412.5C 1189.5,1417.17 1189.5,1421.83 1189.5,1426.5C 1171.52,1423.04 1153.52,1419.7 1135.5,1416.5C 1135.67,1455.17 1135.5,1493.83 1135,1532.5C 1125.56,1669.1 1062.73,1772.6 946.5,1843C 937.531,1848.32 928.197,1852.82 918.5,1856.5 Z M 439.5,1269.5 C 440.83,1275.63 441.497,1282.13 441.5,1289C 441.333,1295.5 441.167,1302 441,1308.5C 434.96,1297.59 428.793,1286.75 422.5,1276C 428.305,1273.9 433.971,1271.74 439.5,1269.5 Z M 1190.5,1269.5 C 1196.67,1271.44 1202.67,1273.78 1208.5,1276.5C 1202.41,1287.01 1196.58,1297.67 1191,1308.5C 1190.5,1295.5 1190.33,1282.5 1190.5,1269.5 Z M 1236.5,1286.5 C 1249.14,1292.16 1261.48,1298.32 1273.5,1305C 1268.08,1317.35 1262.24,1329.52 1256,1341.5C 1249.39,1323.18 1242.89,1304.85 1236.5,1286.5 Z M 394.5,1287.5 C 388.758,1305.39 382.425,1323.06 375.5,1340.5C 369.643,1328.62 363.643,1316.79 357.5,1305C 369.34,1298.08 381.674,1292.25 394.5,1287.5 Z M 411.5,1292.5 C 420.852,1308.03 429.852,1323.86 438.5,1340C 428.629,1362.91 418.629,1385.74 408.5,1408.5C 400.763,1393.53 393.429,1378.36 386.5,1363C 394.742,1339.44 403.075,1315.94 411.5,1292.5 Z M 1219.5,1292.5 C 1228.53,1315.91 1237.2,1339.58 1245.5,1363.5C 1237.73,1378.71 1230.23,1394.04 1223,1409.5C 1213.03,1386.39 1203.2,1363.22 1193.5,1340C 1201.98,1324.03 1210.64,1308.2 1219.5,1292.5 Z M 354.5,1338.5 C 358.923,1347.18 363.256,1356.01 367.5,1365C 363.194,1376.45 359.027,1387.95 355,1399.5C 354.5,1379.17 354.333,1358.84 354.5,1338.5 Z M 1275.5,1339.5 C 1276.66,1358.66 1276.83,1378 1276,1397.5C 1271.77,1386.8 1267.93,1375.97 1264.5,1365C 1268.32,1356.54 1271.98,1348.04 1275.5,1339.5 Z M 440.5,1377.5 C 441.659,1388.66 441.826,1399.99 441,1411.5C 435.601,1413.64 430.101,1415.14 424.5,1416C 430.251,1403.33 435.584,1390.5 440.5,1377.5 Z M 1190.5,1378.5 C 1196.55,1390.83 1201.72,1403.5 1206,1416.5C 1201.03,1414.47 1195.86,1413.13 1190.5,1412.5C 1190.5,1401.17 1190.5,1389.83 1190.5,1378.5 Z M 377.5,1386.5 C 384.377,1399.25 391.044,1412.25 397.5,1425.5C 382.874,1430.89 369.374,1438.23 357,1447.5C 363.706,1427.22 370.539,1406.88 377.5,1386.5 Z M 1274.5,1446.5 C 1261.76,1438.46 1248.43,1431.46 1234.5,1425.5C 1240.31,1412.55 1246.64,1399.89 1253.5,1387.5C 1261.1,1406.96 1268.1,1426.63 1274.5,1446.5 Z M 437.5,1428.5 C 438.833,1428.5 440.167,1428.5 441.5,1428.5C 441.5,1456.17 441.5,1483.83 441.5,1511.5C 413.713,1507.52 387.379,1499.02 362.5,1486C 358.617,1483.13 355.95,1479.46 354.5,1475C 356.225,1469.26 359.558,1464.59 364.5,1461C 376.448,1452.19 389.448,1445.19 403.5,1440C 414.844,1435.84 426.178,1432.01 437.5,1428.5 Z M 1190.5,1428.5 C 1218.81,1434.49 1244.81,1445.66 1268.5,1462C 1272.86,1465.23 1275.86,1469.4 1277.5,1474.5C 1276.54,1478.91 1274.21,1482.41 1270.5,1485C 1245.49,1498.73 1218.82,1507.56 1190.5,1511.5C 1190.5,1483.83 1190.5,1456.17 1190.5,1428.5 Z"/></g>
<g><path style="opacity:1" fill="#19488e" d="M 758.5,1043.5 C 762.842,1059.69 766.509,1076.19 769.5,1093C 769.415,1094.11 769.081,1095.11 768.5,1096C 762.167,1096.67 755.833,1096.67 749.5,1096C 748.919,1095.11 748.585,1094.11 748.5,1093C 751.772,1076.47 755.106,1059.97 758.5,1043.5 Z"/></g>
<g><path style="opacity:1" fill="#19488e" d="M 1272.5,1066.5 C 1283.17,1066.33 1293.84,1066.5 1304.5,1067C 1306.33,1068.83 1308.17,1070.67 1310,1072.5C 1310.67,1098.5 1310.67,1124.5 1310,1150.5C 1308.17,1152.33 1306.33,1154.17 1304.5,1156C 1293.83,1156.67 1283.17,1156.67 1272.5,1156C 1270.33,1153.83 1268.17,1151.67 1266,1149.5C 1265.33,1124.17 1265.33,1098.83 1266,1073.5C 1268.37,1071.3 1270.54,1068.96 1272.5,1066.5 Z M 1282.5,1082.5 C 1286.44,1082.21 1290.27,1082.54 1294,1083.5C 1294.5,1102.5 1294.67,1121.5 1294.5,1140.5C 1290.23,1140.8 1286.07,1140.46 1282,1139.5C 1281.18,1120.43 1281.35,1101.43 1282.5,1082.5 Z"/></g>
<g><path style="opacity:1" fill="#19488e" d="M 1324.5,1066.5 C 1337.84,1066.33 1351.17,1066.5 1364.5,1067C 1366.67,1069.17 1368.83,1071.33 1371,1073.5C 1371.67,1087.83 1371.67,1102.17 1371,1116.5C 1368.65,1118.68 1366.48,1121.02 1364.5,1123.5C 1366.81,1134.56 1369.81,1145.39 1373.5,1156C 1366.81,1156.83 1360.14,1156.66 1353.5,1155.5C 1354.56,1152.9 1354.73,1150.23 1354,1147.5C 1352.33,1140.17 1350.67,1132.83 1349,1125.5C 1347.17,1121.96 1344.84,1121.63 1342,1124.5C 1340.99,1135.28 1341.49,1145.95 1343.5,1156.5C 1337.17,1156.5 1330.83,1156.5 1324.5,1156.5C 1324.69,1154.44 1325.19,1152.44 1326,1150.5C 1326.67,1124.5 1326.67,1098.5 1326,1072.5C 1325.19,1070.56 1324.69,1068.56 1324.5,1066.5 Z M 1343.5,1082.5 C 1347.44,1082.21 1351.27,1082.54 1355,1083.5C 1355.81,1091.41 1355.65,1099.25 1354.5,1107C 1350.83,1107.67 1347.17,1107.67 1343.5,1107C 1343,1106.5 1342.5,1106 1342,1105.5C 1341.33,1098.5 1341.33,1091.5 1342,1084.5C 1342.72,1083.96 1343.22,1083.29 1343.5,1082.5 Z"/></g>
<g><path style="opacity:1" fill="#19488e" d="M 1393.5,1066.5 C 1404.17,1066.33 1414.84,1066.5 1425.5,1067C 1427.67,1069.17 1429.83,1071.33 1432,1073.5C 1432.32,1080.86 1432.82,1088.19 1433.5,1095.5C 1427.17,1095.5 1420.83,1095.5 1414.5,1095.5C 1415.96,1091.61 1416.46,1087.61 1416,1083.5C 1411.67,1082.17 1407.33,1082.17 1403,1083.5C 1402.33,1102.17 1402.33,1120.83 1403,1139.5C 1407.33,1140.83 1411.67,1140.83 1416,1139.5C 1416.5,1134.18 1416.67,1128.84 1416.5,1123.5C 1414.83,1123.5 1413.17,1123.5 1411.5,1123.5C 1410.76,1118.12 1409.76,1112.78 1408.5,1107.5C 1416.83,1107.5 1425.17,1107.5 1433.5,1107.5C 1432.74,1121.48 1432.24,1135.48 1432,1149.5C 1429.83,1151.67 1427.67,1153.83 1425.5,1156C 1414.83,1156.67 1404.17,1156.67 1393.5,1156C 1391.33,1153.83 1389.17,1151.67 1387,1149.5C 1386.33,1124.17 1386.33,1098.83 1387,1073.5C 1389.37,1071.3 1391.54,1068.96 1393.5,1066.5 Z"/></g>
<g><path style="opacity:1" fill="#19488e" d="M 1235.5,1135.5 C 1249.64,1132.15 1255.48,1137.48 1253,1151.5C 1248.59,1156.35 1243.09,1157.85 1236.5,1156C 1231.65,1151.59 1230.15,1146.09 1232,1139.5C 1233.38,1138.29 1234.54,1136.96 1235.5,1135.5 Z"/></g>
<g><path style="opacity:1" fill="#19488e" d="M 749.5,1221.5 C 766.837,1221.33 784.17,1221.5 801.5,1222C 786.623,1243.59 771.623,1265.09 756.5,1286.5C 740.619,1266.11 725.286,1245.28 710.5,1224C 723.657,1223.16 736.657,1222.33 749.5,1221.5 Z"/></g>
<g><path style="opacity:1" fill="#19488e" d="M 830.5,1222.5 C 847.328,1221.34 864.328,1221.17 881.5,1222C 894.554,1222.13 907.554,1222.96 920.5,1224.5C 905.977,1245.56 890.977,1266.23 875.5,1286.5C 860.475,1265.15 845.475,1243.82 830.5,1222.5 Z"/></g>
<g><path style="opacity:1" fill="#19488e" d="M 673.5,1225.5 C 676.572,1225.18 679.572,1225.52 682.5,1226.5C 669.32,1248.87 655.654,1270.87 641.5,1292.5C 627.776,1273.44 614.443,1254.11 601.5,1234.5C 602.025,1233.81 602.692,1233.31 603.5,1233C 626.962,1230.29 650.296,1227.79 673.5,1225.5 Z"/></g>
<g><path style="opacity:1" fill="#19488e" d="M 948.5,1226.5 C 974.763,1227.06 1001.1,1229.22 1027.5,1233C 1028.62,1233.25 1029.62,1233.75 1030.5,1234.5C 1017.31,1254.22 1003.65,1273.56 989.5,1292.5C 975.808,1270.44 962.142,1248.44 948.5,1226.5 Z"/></g>
<g><path style="opacity:1" fill="#19488e" d="M 814.5,1227.5 C 816.371,1227.86 817.871,1228.86 819,1230.5C 834.833,1253.67 850.667,1276.83 866.5,1300C 850.048,1323.61 833.048,1346.78 815.5,1369.5C 798.625,1346.46 781.958,1323.3 765.5,1300C 781.724,1275.71 798.057,1251.54 814.5,1227.5 Z"/></g>
<g><path style="opacity:1" fill="#19488e" d="M 696.5,1231.5 C 697.496,1231.41 698.329,1231.75 699,1232.5C 714.962,1254.93 730.795,1277.43 746.5,1300C 730.406,1324.43 713.906,1348.6 697,1372.5C 681.573,1350.63 666.406,1328.63 651.5,1306.5C 666.244,1281.34 681.244,1256.34 696.5,1231.5 Z"/></g>
<g><path style="opacity:1" fill="#19488e" d="M 933.5,1231.5 C 949.868,1255.87 965.534,1280.87 980.5,1306.5C 965.524,1328.8 950.19,1350.8 934.5,1372.5C 917.833,1348.5 901.167,1324.5 884.5,1300.5C 900.597,1277.3 916.931,1254.3 933.5,1231.5 Z"/></g>
<g><path style="opacity:1" fill="#19488e" d="M 568.5,1237.5 C 570.527,1237.34 572.527,1237.5 574.5,1238C 561.707,1260.42 549.04,1282.92 536.5,1305.5C 523.81,1288.13 511.476,1270.47 499.5,1252.5C 522.396,1246.59 545.396,1241.59 568.5,1237.5 Z"/></g>
<g><path style="opacity:1" fill="#19488e" d="M 1057.5,1237.5 C 1082.86,1240.84 1107.86,1245.84 1132.5,1252.5C 1120.38,1269.91 1108.38,1287.41 1096.5,1305C 1094.89,1305.09 1093.72,1304.26 1093,1302.5C 1081.14,1280.78 1069.31,1259.11 1057.5,1237.5 Z"/></g>
<g><path style="opacity:1" fill="#19488e" d="M 588.5,1242.5 C 603.637,1263.82 618.637,1285.32 633.5,1307C 618.528,1331.79 603.195,1356.29 587.5,1380.5C 573.253,1360.34 559.253,1340.01 545.5,1319.5C 560.099,1293.97 574.432,1268.3 588.5,1242.5 Z"/></g>
<g><path style="opacity:1" fill="#19488e" d="M 1042.5,1242.5 C 1057.58,1267.66 1071.92,1293.32 1085.5,1319.5C 1074.26,1336.97 1062.76,1354.3 1051,1371.5C 1048.66,1374.67 1046.16,1377.67 1043.5,1380.5C 1028.12,1356.23 1013.12,1331.73 998.5,1307C 1013.05,1285.4 1027.71,1263.9 1042.5,1242.5 Z"/></g>
<g><path style="opacity:1" fill="#19488e" d="M 487.5,1263.5 C 488.496,1263.41 489.329,1263.75 490,1264.5C 502.833,1283.33 515.667,1302.17 528.5,1321C 514.793,1345.58 500.96,1370.08 487,1394.5C 476.054,1376.28 465.888,1357.61 456.5,1338.5C 467.033,1313.56 477.367,1288.56 487.5,1263.5 Z"/></g>
<g><path style="opacity:1" fill="#19488e" d="M 1142.5,1263.5 C 1154.39,1288.14 1165.39,1313.3 1175.5,1339C 1165.47,1357.56 1155.3,1376.06 1145,1394.5C 1130.91,1370 1117.08,1345.33 1103.5,1320.5C 1116.26,1301.3 1129.26,1282.3 1142.5,1263.5 Z"/></g>
<g><path style="opacity:1" fill="#19488e" d="M 755.5,1313.5 C 771.178,1333.13 786.178,1353.46 800.5,1374.5C 771.169,1376.25 741.836,1376.92 712.5,1376.5C 727.091,1355.64 741.424,1334.64 755.5,1313.5 Z"/></g>
<g><path style="opacity:1" fill="#19488e" d="M 874.5,1313.5 C 877.098,1315.3 879.265,1317.64 881,1320.5C 893.833,1339.33 906.667,1358.17 919.5,1377C 889.834,1376.73 860.168,1376.07 830.5,1375C 845.299,1354.56 859.965,1334.06 874.5,1313.5 Z"/></g>
<g><path style="opacity:1" fill="#19488e" d="M 641.5,1320.5 C 644.098,1322.3 646.265,1324.64 648,1327.5C 659.5,1344.5 671,1361.5 682.5,1378.5C 655.861,1381.22 629.194,1383.39 602.5,1385C 615.899,1363.69 628.899,1342.19 641.5,1320.5 Z"/></g>
<g><path style="opacity:1" fill="#19488e" d="M 988.5,1320.5 C 1002.31,1341.43 1015.64,1362.77 1028.5,1384.5C 1027.17,1384.83 1025.83,1385.17 1024.5,1385.5C 999.196,1383 973.862,1380.84 948.5,1379C 962.054,1359.62 975.388,1340.12 988.5,1320.5 Z"/></g>
<g><path style="opacity:1" fill="#19488e" d="M 537.5,1334.5 C 550.305,1352.09 562.638,1370.09 574.5,1388.5C 550.956,1391.84 527.456,1395.51 504,1399.5C 503.167,1399.17 502.333,1398.83 501.5,1398.5C 513.512,1377.14 525.512,1355.81 537.5,1334.5 Z"/></g>
<g><path style="opacity:1" fill="#19488e" d="M 1093.5,1334.5 C 1105.97,1355.83 1118.3,1377.33 1130.5,1399C 1106.26,1395.42 1081.93,1392.25 1057.5,1389.5C 1057.35,1388.45 1057.52,1387.45 1058,1386.5C 1070.05,1369.29 1081.89,1351.95 1093.5,1334.5 Z"/></g>
</svg>
