<svg id="svg" version="1.1" xmlns="http://www.w3.org/2000/svg" viewBox="0, 0, 400,419.07004120070627"><g id="svgg"><path id="path0" d="M193.321 62.408 C 120.938 65.448,61.185 121.611,53.571 193.761 C 43.952 284.911,119.191 362.629,210.594 355.958 C 280.649 350.845,337.646 296.376,345.830 226.722 C 355.865 141.310,291.475 65.979,205.363 62.388 C 199.524 62.144,199.618 62.144,193.321 62.408 M213.655 64.614 C 310.595 75.010,370.343 172.729,334.868 262.861 C 309.339 327.723,239.887 365.520,171.400 351.823 C 82.300 334.003,30.948 238.943,65.062 154.977 C 86.302 102.694,133.549 68.711,191.289 64.186 C 194.324 63.948,210.295 64.254,213.655 64.614 M194.232 66.645 C 118.788 69.584,58.579 131.108,57.046 206.828 C 55.137 301.069,143.409 371.382,234.967 348.549 C 291.026 334.570,333.858 287.133,341.833 230.197 C 354.305 141.146,283.916 63.150,194.232 66.645 M213.655 68.853 C 311.766 79.342,369.737 181.573,327.892 270.305 C 307.325 313.916,264.260 344.759,216.363 350.184 C 132.432 359.689,58.806 294.147,58.762 209.888 C 58.723 134.794,116.193 73.719,191.878 68.423 C 195.147 68.195,210.291 68.493,213.655 68.853 M193.700 69.935 C 125.520 73.141,69.443 125.636,61.684 193.520 C 52.220 276.314,117.058 348.906,200.471 348.906 C 278.686 348.906,341.668 284.507,339.882 206.357 C 338.084 127.703,272.227 66.243,193.700 69.935 M214.008 72.144 C 256.382 76.907,292.178 98.595,315.439 133.597 L 318.106 137.610 259.229 137.670 C 226.847 137.702,173.868 137.702,141.497 137.670 L 82.641 137.610 85.640 133.137 C 109.602 97.408,147.380 75.284,190.347 71.819 C 194.511 71.483,210.025 71.696,214.008 72.144 M149.029 92.515 L 149.029 98.411 152.877 98.411 C 154.993 98.411,157.862 98.480,159.253 98.566 L 161.781 98.720 157.995 102.512 L 154.208 106.303 154.208 110.362 L 154.208 114.420 160.008 114.420 C 163.673 114.420,166.138 114.519,166.705 114.689 C 169.795 115.615,170.947 119.444,168.839 121.783 C 167.208 123.592,167.211 123.591,157.446 123.597 L 148.793 123.602 148.793 129.017 L 148.793 134.432 157.799 134.424 C 167.566 134.415,169.125 134.275,171.866 133.158 C 183.829 128.287,184.585 111.449,173.117 105.296 L 171.867 104.625 174.675 101.869 C 180.647 96.010,180.484 90.300,174.261 87.383 L 172.925 86.757 160.977 86.688 L 149.029 86.619 149.029 92.515 M196.237 87.014 C 190.653 88.263,186.285 92.249,184.394 97.822 L 183.755 99.706 183.688 117.069 L 183.620 134.432 189.161 134.432 L 194.703 134.432 194.703 131.410 C 194.703 129.747,194.773 125.660,194.859 122.326 L 195.015 116.265 198.962 116.343 C 203.461 116.432,203.623 116.491,205.003 118.525 L 205.768 119.653 205.768 127.042 L 205.768 134.432 211.301 134.432 L 216.833 134.432 216.833 126.117 C 216.833 115.461,216.612 114.277,214.079 111.382 L 213.025 110.176 213.905 108.850 C 221.148 97.938,209.846 83.971,196.237 87.014 M219.659 110.635 L 219.659 134.432 224.308 134.426 C 231.316 134.417,236.626 134.073,238.846 133.483 C 257.157 128.617,263.139 103.822,248.765 92.369 C 243.292 88.008,239.690 87.050,228.311 86.930 L 219.659 86.839 219.659 110.635 M173.396 88.946 C 176.518 90.382,177.929 93.219,176.929 96.053 C 176.393 97.572,175.499 98.637,171.948 101.987 C 168.072 105.644,168.269 105.293,169.812 105.779 C 180.760 109.230,183.064 123.855,173.651 130.151 C 170.212 132.451,168.301 132.773,158.034 132.779 L 150.441 132.784 150.441 129.151 L 150.441 125.519 158.505 125.443 C 167.798 125.356,168.111 125.294,170.063 123.123 C 172.954 119.908,171.691 114.506,167.733 113.158 C 166.816 112.845,165.587 112.772,161.229 112.772 L 155.856 112.772 155.856 110.008 L 155.856 107.244 160.848 102.247 C 163.594 99.500,165.763 97.174,165.669 97.080 C 165.574 96.985,162.163 96.862,158.087 96.805 L 150.677 96.702 150.677 92.484 L 150.677 88.265 161.448 88.335 C 172.116 88.404,172.230 88.410,173.396 88.946 M203.913 88.883 C 213.847 91.457,217.846 102.905,211.095 109.448 L 210.274 110.243 211.981 111.920 C 214.893 114.779,214.820 114.471,214.900 124.367 L 214.967 132.784 211.192 132.784 L 207.416 132.784 207.416 125.947 C 207.416 118.434,207.409 118.393,205.848 116.537 C 204.487 114.920,203.416 114.661,198.087 114.658 L 193.349 114.656 193.202 115.391 C 193.121 115.796,193.055 119.875,193.055 124.456 L 193.055 132.784 189.160 132.784 L 185.264 132.784 185.346 116.598 C 185.418 102.327,185.474 100.259,185.820 99.117 C 188.231 91.152,195.909 86.809,203.913 88.883 M238.611 89.304 C 242.891 90.448,247.060 92.827,249.703 95.634 C 259.418 105.954,254.953 125.067,241.508 130.716 C 237.834 132.260,236.944 132.385,228.899 132.492 L 221.542 132.589 221.542 110.536 L 221.542 88.482 228.899 88.579 C 235.971 88.672,236.348 88.700,238.611 89.304 M197.663 89.699 C 192.422 90.642,188.538 94.125,187.028 99.235 C 186.651 100.510,186.602 102.153,186.524 116.127 L 186.438 131.607 189.158 131.607 L 191.878 131.607 191.897 119.541 C 191.930 99.694,191.952 99.509,194.632 96.975 C 201.563 90.420,211.989 99.133,205.633 106.169 C 203.827 108.167,202.448 108.633,198.058 108.728 L 194.232 108.810 194.232 111.127 L 194.232 113.443 198.882 113.520 L 203.531 113.596 204.803 114.300 C 205.583 114.732,206.413 115.459,206.953 116.184 C 208.754 118.600,208.700 118.329,208.788 125.309 L 208.869 131.607 211.321 131.607 L 213.773 131.607 213.773 124.233 C 213.773 114.847,213.465 113.921,209.494 111.352 L 208.158 110.488 209.294 109.622 C 214.394 105.732,214.440 97.627,209.388 93.010 C 206.574 90.439,201.508 89.008,197.663 89.699 M152.089 92.643 L 152.089 95.586 159.329 95.603 C 163.311 95.613,167.030 95.692,167.594 95.780 L 168.620 95.939 162.827 101.861 L 157.034 107.783 157.034 109.547 L 157.034 111.312 161.919 111.417 C 165.695 111.498,167.044 111.611,167.863 111.914 C 174.410 114.337,174.440 123.381,167.911 125.998 C 166.629 126.512,166.235 126.540,159.094 126.614 L 151.619 126.693 151.619 129.032 L 151.619 131.371 159.574 131.371 C 165.914 131.371,167.814 131.299,168.932 131.014 C 182.060 127.671,181.321 109.681,167.924 106.471 C 166.986 106.246,166.218 106.006,166.217 105.937 C 166.216 105.868,168.177 103.969,170.574 101.717 C 175.539 97.051,176.252 96.039,176.051 93.939 C 175.894 92.315,175.022 91.084,173.483 90.317 L 172.244 89.700 162.167 89.700 L 152.089 89.700 152.089 92.643 M222.719 110.536 L 222.719 131.371 225.191 131.371 L 227.663 131.371 227.663 113.092 L 227.663 94.813 231.371 94.947 C 243.871 95.401,250.764 103.636,247.924 114.723 C 246.028 122.126,240.757 126.258,232.784 126.593 L 229.547 126.729 229.547 129.085 L 229.547 131.441 232.902 131.304 C 235.201 131.210,236.840 131.011,238.110 130.670 C 254.954 126.150,259.556 102.971,245.470 93.599 C 240.805 90.495,237.340 89.702,228.428 89.701 L 222.719 89.700 222.719 110.536 M198.233 96.027 C 194.693 97.188,193.438 99.260,193.332 104.120 L 193.256 107.593 197.116 107.593 C 202.522 107.593,204.523 106.712,205.917 103.717 C 207.938 99.377,203.021 94.457,198.233 96.027 M228.840 110.807 L 228.840 125.557 232.431 125.417 C 239.950 125.125,244.225 122.181,246.346 115.831 C 250.079 104.659,243.208 96.057,230.554 96.057 L 228.840 96.057 228.840 110.807 M202.206 98.087 C 207.330 100.640,204.627 105.736,198.058 105.909 L 194.938 105.991 194.938 104.024 C 194.938 99.046,198.421 96.200,202.206 98.087 M235.795 98.297 C 243.565 100.272,247.300 107.211,244.762 114.955 C 242.895 120.650,238.852 123.602,232.918 123.602 L 230.489 123.602 230.489 110.771 L 230.489 97.940 232.440 97.940 C 233.514 97.940,235.023 98.100,235.795 98.297 M319.790 140.554 L 320.451 141.730 200.361 141.730 L 80.272 141.730 80.630 141.142 C 80.827 140.818,81.150 140.288,81.347 139.965 L 81.706 139.376 200.417 139.376 L 319.129 139.377 319.790 140.554 M321.973 144.497 L 322.569 145.497 200.484 145.497 C 133.337 145.497,78.399 145.440,78.399 145.370 C 78.399 145.300,78.613 144.824,78.875 144.311 L 79.351 143.378 200.363 143.437 L 321.376 143.496 321.973 144.497 M324.890 150.265 C 332.375 166.091,336.688 182.583,337.973 200.294 L 338.131 202.472 200.376 202.472 L 62.622 202.472 62.758 200.765 C 64.036 184.761,66.851 172.220,72.199 158.703 C 73.643 155.055,76.794 148.080,77.288 147.440 C 77.469 147.205,102.383 147.145,200.465 147.145 L 323.414 147.145 324.890 150.265 M111.651 168.629 C 111.756 189.148,111.824 189.608,115.425 194.350 C 118.725 198.694,121.042 199.411,131.762 199.411 L 139.376 199.411 139.376 194.114 L 139.376 188.817 133.667 188.816 C 126.209 188.814,125.274 188.537,123.893 185.918 L 123.249 184.697 123.184 168.040 L 123.119 151.383 117.341 151.383 L 111.563 151.383 111.651 168.629 M154.562 151.715 C 150.619 152.692,148.451 155.286,148.444 159.035 C 148.438 162.358,149.163 163.544,153.802 167.799 L 155.632 169.478 154.273 170.204 C 143.346 176.039,143.104 191.764,153.855 197.334 C 157.592 199.270,157.548 199.264,169.099 199.358 L 179.400 199.442 179.400 194.022 L 179.400 188.602 170.277 188.533 C 160.027 188.455,160.140 188.474,158.486 186.590 C 156.705 184.562,157.377 181.339,159.850 180.047 L 161.090 179.400 167.419 179.400 L 173.749 179.400 173.749 175.324 L 173.749 171.248 169.777 167.319 L 165.806 163.390 172.367 163.390 L 178.929 163.390 178.929 157.387 L 178.929 151.383 167.334 151.403 C 158.963 151.418,155.411 151.504,154.562 151.715 M181.283 151.542 C 181.283 152.221,194.694 193.046,195.335 194.319 C 198.854 201.306,205.440 200.969,209.060 193.616 C 209.622 192.474,221.842 154.923,222.631 151.913 L 222.770 151.383 216.873 151.383 L 210.975 151.383 210.146 154.032 C 209.690 155.489,207.751 161.738,205.836 167.919 C 203.921 174.100,202.301 179.158,202.237 179.158 C 202.172 179.158,200.205 172.935,197.866 165.330 L 193.613 151.501 187.448 151.438 C 184.057 151.404,181.283 151.450,181.283 151.542 M234.497 151.761 C 229.365 153.140,226.986 158.088,229.276 162.617 C 229.964 163.977,231.997 166.173,234.944 168.739 L 235.749 169.440 234.237 170.229 C 225.125 174.981,223.205 188.091,230.620 194.925 C 234.923 198.892,237.173 199.411,250.050 199.411 L 259.447 199.411 259.447 194.007 L 259.447 188.602 250.324 188.533 C 241.494 188.466,241.170 188.447,240.259 187.956 C 237.350 186.386,236.684 183.294,238.749 180.943 C 239.970 179.552,240.854 179.400,247.717 179.400 L 253.796 179.400 253.796 175.341 L 253.796 171.282 249.855 167.336 L 245.915 163.390 252.445 163.390 L 258.976 163.390 258.976 157.387 L 258.976 151.383 247.381 151.399 C 237.952 151.411,235.545 151.479,234.497 151.761 M266.335 169.099 C 266.422 188.947,266.324 187.764,268.200 191.589 C 271.350 198.014,274.568 199.401,286.345 199.407 L 293.820 199.411 293.820 194.128 L 293.820 188.845 287.640 188.772 C 277.013 188.647,277.575 189.837,277.575 167.473 L 277.575 151.383 271.916 151.383 L 266.257 151.383 266.335 169.099 M121.536 169.217 L 121.601 185.403 122.418 186.910 C 124.097 190.007,125.385 190.465,132.417 190.465 L 137.493 190.465 137.493 194.135 L 137.493 197.805 130.489 197.708 C 120.578 197.570,118.313 196.552,115.365 190.907 C 113.483 187.304,113.482 187.292,113.480 169.099 L 113.479 153.031 117.475 153.031 L 121.471 153.031 121.536 169.217 M197.177 169.041 C 199.890 177.846,202.165 185.049,202.232 185.048 C 202.299 185.047,204.584 177.870,207.309 169.098 L 212.264 153.149 216.314 153.084 C 218.542 153.049,220.365 153.083,220.365 153.159 C 220.365 153.817,208.110 191.467,207.459 192.806 C 204.501 198.900,199.955 199.264,197.016 193.643 C 196.366 192.401,185.885 160.701,183.763 153.561 L 183.606 153.031 187.924 153.031 L 192.243 153.031 197.177 169.041 M275.980 169.099 C 276.053 187.232,275.939 186.113,277.944 188.333 C 279.689 190.264,279.989 190.337,286.463 190.421 L 292.172 190.495 292.172 194.129 L 292.172 197.763 286.109 197.762 C 276.281 197.759,273.676 196.830,270.605 192.231 C 268.020 188.359,267.922 187.509,267.922 168.815 L 267.922 153.031 271.918 153.031 L 275.914 153.031 275.980 169.099 M177.281 157.352 L 177.281 161.437 175.338 161.588 C 174.270 161.671,170.774 161.740,167.569 161.741 C 164.364 161.742,161.742 161.809,161.742 161.890 C 161.742 161.971,164.073 164.312,166.922 167.092 L 172.101 172.147 172.101 174.810 L 172.101 177.473 166.392 177.560 C 161.054 177.640,160.604 177.681,159.480 178.184 C 154.623 180.358,154.501 186.947,159.270 189.485 L 160.447 190.112 168.982 190.182 L 177.516 190.251 177.516 194.029 L 177.516 197.806 168.629 197.705 C 161.262 197.620,159.499 197.535,158.328 197.209 C 147.441 194.171,144.063 182.015,151.925 174.169 C 153.482 172.615,157.172 170.453,158.267 170.453 C 159.197 170.453,158.712 169.836,155.377 166.773 C 149.071 160.981,148.285 157.439,152.653 154.502 C 154.405 153.324,154.559 153.310,166.274 153.288 L 177.281 153.267 177.281 157.352 M257.328 157.352 L 257.328 161.438 255.527 161.590 C 254.536 161.674,251.040 161.742,247.757 161.742 C 244.475 161.742,241.799 161.822,241.812 161.919 C 241.824 162.016,244.143 164.320,246.965 167.039 L 252.096 171.984 252.122 174.731 L 252.148 177.479 246.557 177.577 C 243.110 177.637,240.629 177.783,240.088 177.958 C 234.886 179.640,234.380 186.887,239.285 189.474 L 240.494 190.112 249.147 190.182 L 257.799 190.251 257.799 194.029 L 257.799 197.806 248.793 197.705 C 237.185 197.574,235.512 197.143,231.662 193.294 C 224.534 186.168,227.497 174.380,237.307 170.827 C 238.075 170.549,238.765 170.260,238.842 170.183 C 238.918 170.107,237.573 168.748,235.853 167.162 C 229.363 161.182,228.519 158.588,231.945 155.162 C 233.806 153.300,233.864 153.293,246.321 153.279 L 257.328 153.267 257.328 157.352 M185.286 154.385 C 185.288 154.947,197.338 191.765,197.887 192.886 C 200.265 197.743,203.584 197.663,206.277 192.683 C 206.756 191.796,217.990 157.304,218.635 154.738 C 218.767 154.211,218.754 154.208,215.970 154.208 L 213.172 154.208 207.763 171.627 C 204.788 181.208,202.301 189.048,202.236 189.049 C 202.142 189.052,197.646 174.640,191.937 156.033 L 191.377 154.208 188.331 154.208 C 186.656 154.208,185.286 154.288,185.286 154.385 M114.656 169.491 C 114.656 186.569,114.679 186.861,116.340 190.230 C 117.531 192.647,119.328 194.547,121.366 195.543 L 122.778 196.233 129.547 196.305 L 136.315 196.377 136.315 194.026 L 136.315 191.675 131.195 191.599 C 125.378 191.513,124.795 191.362,122.863 189.440 C 120.202 186.795,120.074 185.834,120.072 168.629 L 120.071 154.444 117.363 154.444 L 114.656 154.444 114.656 169.491 M154.583 154.814 C 151.488 155.948,150.350 158.882,151.949 161.605 C 152.411 162.392,157.974 167.770,160.874 170.235 L 161.587 170.841 159.840 171.256 C 149.186 173.784,145.171 185.266,152.417 192.486 C 155.915 195.971,157.461 196.351,168.148 196.351 L 176.339 196.351 176.339 193.996 L 176.339 191.642 169.405 191.642 C 162.010 191.642,160.795 191.513,158.731 190.513 C 153.072 187.768,153.220 179.794,158.980 177.135 C 160.432 176.465,160.501 176.457,165.568 176.378 L 170.689 176.299 170.689 174.338 L 170.689 172.376 164.630 166.470 L 158.572 160.565 162.099 160.564 C 164.040 160.564,167.931 160.494,170.747 160.409 L 175.868 160.255 175.868 157.349 L 175.868 154.444 165.686 154.460 C 157.465 154.474,155.326 154.542,154.583 154.814 M234.657 154.805 C 232.626 155.550,231.373 157.127,231.349 158.969 C 231.321 161.087,232.061 162.080,237.111 166.712 L 241.576 170.806 240.800 171.009 C 230.266 173.756,225.766 182.606,230.842 190.592 C 233.856 195.333,236.921 196.342,248.323 196.347 L 256.386 196.351 256.386 193.996 L 256.386 191.642 249.452 191.642 C 241.868 191.642,240.775 191.516,238.653 190.398 C 233.182 187.514,233.330 179.980,238.912 177.231 L 240.483 176.457 245.727 176.378 L 250.971 176.300 250.953 174.377 L 250.936 172.454 244.862 166.569 L 238.788 160.683 244.703 160.539 C 247.956 160.461,251.863 160.381,253.384 160.363 L 256.151 160.330 256.151 157.387 L 256.151 154.444 245.851 154.460 C 237.663 154.474,235.367 154.544,234.657 154.805 M269.156 170.159 C 269.243 187.652,269.185 186.981,270.907 190.420 C 272.030 192.666,273.867 194.532,275.900 195.495 L 277.457 196.233 284.108 196.302 L 290.759 196.371 290.759 194.023 L 290.759 191.675 285.639 191.600 C 279.022 191.502,277.353 190.703,275.495 186.740 L 274.868 185.403 274.802 169.923 L 274.737 154.444 271.907 154.444 L 269.078 154.444 269.156 170.159 M338.084 204.532 C 338.085 204.759,338.152 205.341,338.232 205.827 L 338.378 206.710 200.502 206.710 L 62.625 206.710 62.625 205.415 L 62.625 204.120 200.353 204.120 C 331.365 204.120,338.081 204.140,338.084 204.532 M338.317 209.418 L 338.317 210.477 200.412 210.418 L 62.507 210.359 62.431 209.692 C 62.389 209.325,62.412 208.874,62.482 208.691 C 62.592 208.404,81.801 208.358,200.463 208.358 L 338.317 208.358 338.317 209.418 M338.169 214.303 C 337.166 233.156,333.636 248.631,326.735 264.419 L 325.307 267.687 200.381 267.684 L 75.456 267.682 74.190 264.800 C 67.410 249.375,63.371 232.245,62.705 216.089 L 62.551 212.360 200.412 212.360 L 338.272 212.360 338.169 214.303 M88.612 215.656 C 82.362 216.572,77.307 221.192,75.511 227.630 C 75.022 229.380,75.006 229.915,74.923 247.263 L 74.838 265.097 84.918 265.089 C 95.581 265.080,97.158 264.959,99.858 263.937 C 109.563 260.263,112.923 247.134,105.939 240.175 L 104.606 238.846 105.393 237.660 C 112.362 227.163,102.081 213.683,88.612 215.656 M124.662 215.568 C 124.403 215.619,123.608 215.777,122.896 215.919 C 117.590 216.979,112.879 221.572,111.089 227.432 C 110.552 229.191,110.551 229.221,110.475 247.145 L 110.399 265.097 115.904 265.097 L 121.408 265.097 121.563 260.330 C 121.648 257.707,121.718 253.463,121.718 250.897 L 121.719 246.232 125.705 246.306 C 130.247 246.391,130.401 246.446,131.783 248.484 L 132.549 249.612 132.549 257.354 L 132.549 265.097 138.081 265.097 L 143.614 265.097 143.614 256.082 C 143.614 245.022,143.500 244.397,140.896 241.201 L 139.827 239.888 140.278 239.250 C 145.835 231.378,142.271 220.169,133.104 216.690 C 130.478 215.693,126.627 215.181,124.662 215.568 M166.686 215.663 C 146.157 218.084,137.202 241.787,150.870 257.525 C 155.305 262.632,163.785 265.488,172.984 264.975 L 175.868 264.814 175.868 259.482 L 175.868 254.149 171.572 254.149 C 163.678 254.149,157.882 250.968,156.669 245.968 L 156.512 245.321 166.190 245.321 L 175.868 245.321 175.868 239.788 L 175.868 234.255 166.569 234.255 C 161.454 234.255,157.270 234.176,157.271 234.079 C 157.272 233.982,157.806 233.193,158.458 232.326 C 161.932 227.701,166.683 226.078,174.279 226.922 L 175.868 227.099 175.868 221.533 L 175.868 215.967 173.645 215.694 C 171.211 215.395,169.043 215.385,166.686 215.663 M177.567 233.490 L 177.634 251.560 178.295 253.443 C 182.053 264.150,193.985 268.378,202.780 262.117 L 203.911 261.312 204.781 261.997 C 212.252 267.884,224.083 264.783,228.469 255.788 C 230.264 252.108,230.250 252.290,230.251 232.784 L 230.253 215.421 224.367 215.421 L 218.481 215.421 218.476 232.784 C 218.471 251.879,218.521 251.188,217.041 252.545 C 215.106 254.319,211.521 253.736,210.313 251.451 L 209.770 250.426 209.770 232.924 L 209.770 215.421 203.885 215.421 L 197.999 215.421 197.999 232.924 L 197.999 250.426 197.457 251.451 C 195.827 254.533,190.779 254.180,189.538 250.897 C 189.370 250.450,189.288 244.554,189.288 232.828 L 189.288 215.421 183.394 215.421 L 177.500 215.421 177.567 233.490 M231.901 240.259 L 231.901 265.097 237.669 265.097 L 243.437 265.097 243.437 240.259 L 243.437 215.421 237.669 215.421 L 231.901 215.421 231.901 240.259 M251.560 215.750 C 249.392 216.436,247.616 218.006,246.654 220.088 C 246.145 221.188,246.145 221.207,246.080 243.143 L 246.015 265.097 251.293 265.097 L 256.570 265.097 256.711 260.800 C 256.788 258.437,256.932 252.656,257.031 247.954 L 257.210 239.405 262.260 249.805 C 267.145 259.866,267.363 260.263,268.924 261.934 C 273.098 266.404,278.327 265.943,280.809 260.889 L 281.460 259.564 281.523 237.493 L 281.587 215.421 276.167 215.421 L 270.747 215.421 270.743 228.075 L 270.739 240.730 265.542 230.489 C 262.684 224.856,260.018 219.731,259.618 219.101 C 257.805 216.243,254.433 214.841,251.560 215.750 M303.110 215.762 C 285.747 218.461,276.905 238.776,286.612 253.668 C 301.036 275.796,334.120 263.029,331.338 236.409 L 331.187 234.962 318.036 234.962 L 304.885 234.962 304.885 240.259 L 304.885 245.556 311.830 245.556 C 316.574 245.556,318.776 245.635,318.776 245.806 C 318.776 248.429,314.008 252.452,309.712 253.456 C 297.077 256.407,288.775 239.954,298.181 230.606 C 304.079 224.744,311.854 225.533,318.573 232.674 L 320.372 234.586 324.518 230.621 C 326.798 228.440,328.664 226.523,328.664 226.362 C 328.664 225.980,324.934 222.435,323.013 220.991 C 317.035 216.497,310.100 214.675,303.110 215.762 M242.025 240.259 L 242.025 263.920 237.669 263.920 L 233.314 263.920 233.314 240.259 L 233.314 216.598 237.669 216.598 L 242.025 216.598 242.025 240.259 M95.115 217.695 C 104.689 219.954,108.898 230.570,103.080 237.790 C 102.038 239.083,101.939 239.296,102.286 239.491 C 110.387 244.024,109.423 257.027,100.647 261.606 C 97.530 263.233,97.264 263.266,86.463 263.386 L 76.751 263.493 76.751 246.793 C 76.751 230.943,76.775 230.001,77.215 228.278 C 79.280 220.206,86.832 215.741,95.115 217.695 M256.085 218.043 C 257.562 218.956,258.492 220.564,265.364 234.090 L 272.278 247.696 272.338 232.500 L 272.399 217.304 276.164 217.304 L 279.929 217.304 279.929 237.626 C 279.929 260.661,280.012 259.565,278.124 261.584 C 276.265 263.571,274.116 263.755,271.755 262.129 C 269.630 260.665,268.863 259.337,262.154 245.493 C 258.658 238.279,255.734 232.375,255.656 232.374 C 255.578 232.373,255.444 237.272,255.359 243.261 C 255.274 249.250,255.138 256.189,255.056 258.682 L 254.907 263.214 251.285 263.214 L 247.663 263.214 247.728 242.554 C 247.792 222.050,247.797 221.887,248.293 220.836 C 249.824 217.593,253.326 216.337,256.085 218.043 M311.683 217.691 C 316.378 218.639,320.496 220.868,324.553 224.657 L 326.343 226.328 323.461 229.217 L 320.579 232.106 319.265 230.755 C 312.267 223.551,302.862 223.110,296.500 229.686 C 287.676 238.808,294.084 255.470,306.416 255.467 C 313.814 255.465,319.718 251.117,320.769 244.896 L 320.936 243.908 313.735 243.908 L 306.533 243.908 306.533 240.259 L 306.533 236.610 318.053 236.610 L 329.572 236.610 329.733 237.901 C 330.432 243.497,327.529 251.547,323.176 256.081 C 313.121 266.554,297.135 265.485,288.835 253.783 C 276.648 236.603,291.234 213.563,311.683 217.691 M130.522 217.769 C 140.465 220.312,144.742 232.495,137.994 239.056 L 137.053 239.971 138.681 241.549 C 139.768 242.602,140.526 243.588,140.961 244.518 L 141.613 245.909 141.680 254.562 L 141.747 263.214 137.972 263.214 L 134.197 263.214 134.197 256.141 C 134.197 248.282,134.199 248.296,132.490 246.350 C 131.104 244.771,130.472 244.625,124.993 244.620 L 120.145 244.614 119.990 248.537 C 119.905 250.694,119.835 254.879,119.835 257.836 L 119.835 263.214 115.951 263.214 L 112.066 263.214 112.066 247.692 C 112.066 237.899,112.159 231.498,112.319 230.349 C 113.592 221.198,121.786 215.534,130.522 217.769 M173.484 217.451 L 174.220 217.599 174.220 221.287 L 174.220 224.976 170.630 224.972 C 163.160 224.963,158.491 227.694,155.361 233.902 L 154.412 235.786 164.316 235.847 L 174.220 235.909 174.220 239.673 L 174.220 243.437 164.214 243.437 C 155.269 243.437,154.208 243.477,154.208 243.808 C 154.208 244.012,154.481 244.991,154.814 245.983 C 157.014 252.536,162.647 256.010,171.101 256.027 L 174.220 256.033 174.220 259.655 L 174.220 263.277 170.041 263.143 C 161.121 262.858,155.577 260.510,151.328 255.221 C 140.150 241.305,147.787 220.839,165.346 217.654 C 167.134 217.330,172.240 217.203,173.484 217.451 M187.640 233.934 C 187.640 245.873,187.717 250.821,187.913 251.475 C 189.078 255.362,194.648 256.696,197.810 253.846 C 199.741 252.105,199.636 253.232,199.642 234.191 L 199.647 217.293 203.826 217.358 L 208.005 217.422 208.122 234.491 C 208.254 253.570,208.121 252.183,209.981 253.863 C 212.319 255.976,216.416 255.870,218.526 253.641 C 220.187 251.888,220.119 252.722,220.124 234.079 L 220.129 217.304 224.378 217.304 L 228.626 217.304 228.556 234.079 L 228.487 250.853 227.823 252.735 C 224.232 262.897,212.280 266.596,204.976 259.807 L 203.831 258.742 202.529 259.932 C 195.289 266.549,183.461 262.825,179.972 252.831 L 179.282 250.853 179.214 234.079 L 179.146 217.304 183.393 217.304 L 187.640 217.304 187.640 233.934 M234.020 240.377 L 234.020 263.214 237.669 263.214 L 241.318 263.214 241.318 240.377 L 241.318 217.540 237.669 217.540 L 234.020 217.540 234.020 240.377 M87.646 218.844 C 83.087 220.071,79.623 223.702,78.383 228.550 C 77.956 230.221,77.928 231.285,77.928 246.182 L 77.928 262.036 80.518 262.036 C 82.816 262.036,83.111 261.990,83.136 261.624 C 83.152 261.398,83.232 254.114,83.313 245.438 L 83.461 229.665 84.111 228.340 C 86.083 224.326,91.008 222.403,94.696 224.207 C 99.959 226.782,100.455 232.648,95.716 236.263 C 94.262 237.372,92.395 237.787,88.855 237.787 L 85.697 237.787 85.697 240.141 L 85.697 242.496 90.121 242.496 C 93.278 242.496,94.930 242.596,95.890 242.846 C 102.488 244.564,102.976 253.762,96.596 256.149 C 95.475 256.568,94.763 256.622,90.280 256.622 L 85.227 256.622 85.227 259.329 L 85.227 262.036 90.592 262.036 C 94.650 262.036,96.295 261.949,97.342 261.676 C 107.782 258.956,110.158 244.596,100.915 240.070 L 99.577 239.415 100.581 238.649 C 106.789 233.915,105.398 223.622,98.064 220.030 C 94.956 218.507,90.696 218.022,87.646 218.844 M124.308 218.644 C 120.502 219.281,116.731 222.109,115.023 225.609 C 113.344 229.046,113.400 228.386,113.300 246.086 L 113.211 262.036 115.896 262.036 L 118.581 262.036 118.734 246.281 C 118.913 227.799,118.758 228.935,121.476 226.212 C 127.383 220.294,137.318 226.523,133.731 233.896 C 132.127 237.195,129.854 238.345,124.720 238.455 L 121.012 238.535 121.012 240.846 L 121.012 243.158 125.427 243.239 C 131.369 243.348,132.890 244.082,134.865 247.793 L 135.491 248.970 135.567 255.503 L 135.642 262.036 138.109 262.036 L 140.576 262.036 140.506 253.973 C 140.422 244.300,140.105 243.357,136.143 240.977 L 134.986 240.283 136.470 238.895 C 145.208 230.721,136.709 216.568,124.308 218.644 M166.333 218.739 C 149.864 221.155,141.896 239.327,151.219 253.208 C 154.922 258.720,160.908 261.559,169.688 261.965 L 172.808 262.109 172.808 259.753 L 172.808 257.396 169.923 257.254 C 160.550 256.793,154.095 251.531,152.906 243.378 L 152.742 242.260 162.775 242.260 L 172.808 242.260 172.808 239.788 L 172.808 237.316 162.802 237.316 C 157.298 237.316,152.796 237.280,152.796 237.235 C 152.796 236.821,153.915 234.088,154.589 232.858 C 157.849 226.906,162.682 223.983,169.696 223.722 L 172.823 223.606 172.756 221.103 L 172.690 218.599 170.218 218.565 C 168.858 218.547,167.110 218.625,166.333 218.739 M180.390 234.550 L 180.459 250.618 181.179 252.630 C 184.569 262.093,195.749 265.152,202.452 258.450 L 203.866 257.036 205.300 258.470 C 212.190 265.360,223.580 261.897,226.867 251.913 C 227.258 250.725,227.300 249.296,227.373 234.550 L 227.452 218.481 224.497 218.481 L 221.542 218.481 221.542 233.870 C 221.542 249.723,221.478 250.978,220.576 252.731 C 217.830 258.068,209.907 257.789,207.369 252.266 L 206.828 251.089 206.760 234.785 L 206.692 218.481 203.876 218.481 L 201.059 218.481 201.059 233.859 C 201.059 250.043,200.991 251.280,200.002 252.972 C 196.943 258.205,188.948 257.593,186.779 251.959 C 186.386 250.938,186.347 249.612,186.281 234.667 L 186.209 218.481 183.264 218.481 L 180.320 218.481 180.390 234.550 M251.791 218.810 C 250.983 219.161,249.635 220.603,249.307 221.466 C 249.178 221.807,249.088 230.326,249.088 242.275 L 249.088 262.507 251.406 262.507 L 253.725 262.507 253.877 256.445 C 253.961 253.111,254.095 245.562,254.175 239.670 C 254.256 233.779,254.389 228.612,254.471 228.190 C 254.605 227.500,255.390 229.026,262.105 243.031 C 266.222 251.617,269.983 259.158,270.463 259.789 C 273.079 263.230,276.502 263.424,278.080 260.221 L 278.634 259.094 278.698 238.788 L 278.762 218.481 276.285 218.481 L 273.808 218.481 273.796 236.080 L 273.784 253.679 265.497 237.153 C 260.777 227.739,256.917 220.321,256.529 219.918 C 255.216 218.552,253.371 218.121,251.791 218.810 M302.413 218.816 C 287.583 222.220,280.794 239.567,289.283 252.364 C 300.860 269.814,326.309 262.625,328.441 241.301 C 328.836 237.350,330.126 237.787,318.054 237.787 L 307.710 237.787 307.710 240.259 L 307.710 242.731 314.891 242.731 L 322.072 242.731 322.072 243.741 C 322.072 250.539,314.845 256.614,306.651 256.704 C 295.315 256.828,287.637 243.435,292.933 232.775 C 298.027 222.523,311.417 220.889,319.585 229.522 C 320.525 230.516,320.527 230.515,322.739 228.291 L 324.691 226.329 323.243 224.988 C 317.595 219.759,309.175 217.264,302.413 218.816 M90.053 224.809 C 86.307 225.783,84.735 228.203,84.571 233.255 L 84.461 236.610 88.215 236.610 C 93.664 236.610,95.589 235.842,97.100 233.066 C 99.457 228.735,95.008 223.521,90.053 224.809 M124.308 225.562 C 121.184 226.972,120.219 228.828,120.112 233.632 L 120.028 237.363 124.111 237.274 C 129.445 237.158,131.265 236.338,132.657 233.424 C 135.041 228.433,129.502 223.218,124.308 225.562 M94.068 227.251 C 98.599 230.333,95.460 234.962,88.838 234.962 L 86.404 234.962 86.404 232.718 C 86.404 227.646,90.428 224.776,94.068 227.251 M129.415 227.572 C 134.132 230.488,131.109 235.425,124.603 235.430 L 121.719 235.433 121.720 233.490 C 121.724 228.195,125.600 225.213,129.415 227.572 M84.520 249.574 L 84.520 255.475 90.230 255.401 C 96.517 255.319,96.978 255.220,98.443 253.641 C 101.425 250.426,99.765 244.826,95.562 243.925 C 94.915 243.786,92.166 243.673,89.453 243.673 L 84.520 243.673 84.520 249.574 M94.858 245.574 C 98.134 246.276,99.351 250.316,96.959 252.549 C 95.798 253.633,94.940 253.796,90.414 253.796 L 86.168 253.796 86.168 249.559 L 86.168 245.321 89.924 245.321 C 91.989 245.321,94.210 245.435,94.858 245.574 M324.426 269.462 C 324.426 269.532,324.212 270.009,323.950 270.521 L 323.475 271.454 200.395 271.454 L 77.316 271.454 76.801 270.394 L 76.286 269.335 200.356 269.335 C 268.595 269.335,324.426 269.392,324.426 269.462 M321.954 274.279 L 321.358 275.456 200.408 275.456 L 79.459 275.456 78.797 274.279 L 78.136 273.102 200.344 273.102 L 322.551 273.102 321.954 274.279 M319.208 279.164 C 269.773 363.500,150.036 370.609,90.720 292.730 C 87.161 288.057,80.518 277.974,80.518 277.245 C 80.518 277.168,134.495 277.104,200.467 277.104 L 320.415 277.104 319.208 279.164 M162.448 286.875 L 162.448 292.407 163.567 292.438 C 164.182 292.455,165.877 292.535,167.334 292.615 L 169.984 292.760 167.871 296.057 L 165.759 299.353 165.752 303.061 L 165.745 306.769 169.470 306.769 C 173.032 306.769,173.218 306.792,173.686 307.298 C 174.670 308.364,175.002 311.219,174.329 312.830 C 173.590 314.598,173.819 314.538,167.827 314.538 L 162.448 314.538 162.448 319.737 L 162.448 324.936 168.864 324.848 C 176.658 324.740,177.129 324.619,179.662 322.091 C 185.249 316.514,185.301 305.128,179.766 299.286 L 178.281 297.718 179.692 295.619 C 183.705 289.650,183.382 284.194,178.883 281.952 L 177.659 281.342 170.054 281.342 L 162.448 281.342 162.448 286.875 M184.764 300.471 L 184.697 319.600 184.013 321.081 C 182.116 325.190,180.715 325.678,170.512 325.786 L 162.448 325.872 162.448 331.623 L 162.448 337.375 171.336 337.373 C 186.546 337.370,190.247 336.137,194.565 329.634 C 197.903 324.608,197.846 325.084,197.939 301.413 L 198.019 281.342 191.425 281.342 L 184.830 281.342 184.764 300.471 M204.647 302.237 L 204.719 323.131 205.255 324.897 C 206.882 330.259,210.220 334.422,214.600 336.552 C 217.770 338.093,218.225 338.145,229.370 338.254 L 239.435 338.352 239.435 332.449 L 239.435 326.545 231.675 326.545 C 222.664 326.545,222.128 326.448,220.133 324.451 C 217.532 321.848,217.544 321.954,217.542 299.765 L 217.540 281.342 211.058 281.342 L 204.576 281.342 204.647 302.237 M219.008 297.632 C 219.103 315.929,219.065 315.496,220.916 319.173 C 226.066 329.399,239.461 327.500,242.133 316.165 C 242.891 312.950,242.508 308.703,241.218 306.008 L 240.656 304.832 241.493 303.741 C 246.389 297.362,243.903 285.810,236.889 282.342 L 235.105 281.460 227.014 281.387 L 218.923 281.314 219.008 297.632 M177.914 283.448 C 181.809 285.217,181.717 289.547,177.658 295.417 C 175.637 298.341,175.621 298.389,176.530 298.859 C 182.731 302.066,184.059 314.789,178.781 320.431 C 176.537 322.831,176.349 322.885,169.923 322.970 L 164.332 323.044 164.332 319.615 L 164.332 316.186 169.127 316.186 C 173.691 316.186,173.952 316.161,174.571 315.675 C 176.861 313.874,177.002 307.784,174.798 305.849 L 173.968 305.121 170.680 305.121 L 167.393 305.121 167.393 302.640 L 167.393 300.159 170.120 295.898 C 173.567 290.512,173.433 290.995,171.479 290.994 C 170.591 290.993,168.673 290.924,167.216 290.840 L 164.567 290.687 164.567 286.839 L 164.567 282.990 170.747 282.995 C 176.312 283.000,177.026 283.045,177.914 283.448 M196.295 302.001 C 196.216 320.724,196.207 321.041,195.697 322.896 C 194.333 327.865,191.165 331.922,187.077 333.940 C 184.114 335.401,183.379 335.484,173.337 335.488 L 164.332 335.491 164.332 331.489 L 164.332 327.487 171.030 327.487 C 179.700 327.487,181.522 327.067,183.859 324.532 C 186.483 321.685,186.463 321.870,186.463 300.871 L 186.463 282.990 191.419 282.990 L 196.376 282.990 196.295 302.001 M215.944 301.883 C 216.018 323.129,215.919 321.945,217.836 324.614 C 220.158 327.847,221.555 328.265,230.430 328.379 L 237.552 328.470 237.552 332.452 L 237.552 336.433 228.760 336.433 C 216.119 336.433,213.288 335.429,209.385 329.558 C 206.275 324.880,206.239 324.559,206.239 301.922 L 206.239 282.990 211.059 282.990 L 215.878 282.990 215.944 301.883 M235.927 283.867 C 242.603 287.156,244.518 297.959,239.387 303.384 L 238.214 304.624 238.855 305.464 C 240.546 307.681,241.316 312.318,240.519 315.480 C 237.970 325.592,226.950 327.291,222.497 318.258 C 220.849 314.914,220.844 314.862,220.840 297.983 L 220.836 282.958 227.610 283.033 L 234.385 283.108 235.927 283.867 M165.745 286.833 L 165.745 289.522 170.469 289.695 C 173.861 289.818,175.164 289.943,175.089 290.137 C 175.031 290.285,173.541 292.665,171.777 295.425 L 168.570 300.444 168.570 302.194 L 168.570 303.943 171.167 303.943 C 172.828 303.943,174.041 304.059,174.533 304.265 C 177.433 305.476,178.582 311.057,176.694 314.764 C 175.443 317.223,174.475 317.599,169.401 317.599 L 165.509 317.599 165.509 319.717 L 165.509 321.836 170.159 321.831 C 175.485 321.825,176.043 321.685,177.755 319.921 C 182.966 314.552,181.484 302.398,175.273 299.555 C 173.708 298.838,173.582 299.387,176.191 295.542 C 179.740 290.310,180.350 288.288,179.046 286.075 C 178.011 284.317,177.914 284.293,171.496 284.214 L 165.745 284.144 165.745 286.833 M187.640 301.484 C 187.640 320.743,187.636 320.791,186.093 323.404 C 183.527 327.747,181.060 328.664,171.941 328.664 L 165.509 328.664 165.509 331.504 L 165.509 334.345 174.397 334.261 C 185.643 334.156,187.777 333.520,191.245 329.242 C 194.906 324.725,194.931 324.551,194.935 302.590 L 194.938 284.167 191.289 284.167 L 187.640 284.167 187.640 301.484 M207.474 303.178 C 207.560 324.505,207.469 323.335,209.344 327.188 C 210.988 330.568,213.825 333.195,217.262 334.521 L 218.835 335.127 227.604 335.207 L 236.374 335.287 236.374 332.446 L 236.374 329.606 230.430 329.602 C 222.386 329.597,220.610 329.143,217.896 326.396 C 214.705 323.165,214.715 323.235,214.715 302.011 L 214.715 284.167 211.056 284.167 L 207.398 284.167 207.474 303.178 M222.017 298.470 C 222.022 315.954,222.246 317.390,225.474 320.607 C 233.734 328.840,244.890 314.171,237.201 305.188 C 236.461 304.323,236.415 304.198,236.797 304.077 C 240.747 302.823,242.328 294.610,239.664 289.183 C 237.842 285.473,235.728 284.333,230.430 284.207 L 226.722 284.118 226.722 286.615 L 226.722 289.111 230.002 289.111 C 233.684 289.111,234.236 289.248,235.493 290.469 C 237.838 292.748,237.902 297.465,235.623 300.055 C 234.445 301.392,233.728 301.586,229.959 301.588 L 226.957 301.589 226.957 303.708 L 226.957 305.827 229.237 305.827 C 231.900 305.827,233.103 306.269,234.261 307.673 C 238.755 313.121,232.884 321.881,228.004 317.009 C 225.692 314.700,225.605 313.899,225.566 294.585 L 225.544 284.167 223.779 284.167 L 222.013 284.167 222.017 298.470 M226.803 293.857 C 226.888 295.820,226.957 298.098,226.957 298.919 L 226.957 300.412 230.080 300.412 C 234.869 300.412,236.020 299.408,236.021 295.232 C 236.022 291.216,234.870 290.288,229.886 290.288 L 226.648 290.288 226.803 293.857 M233.567 292.606 C 234.306 293.519,234.554 294.854,234.254 296.301 C 233.816 298.411,233.506 298.632,230.863 298.728 L 228.605 298.809 228.605 295.350 L 228.605 291.891 230.863 291.973 C 232.895 292.046,233.165 292.109,233.567 292.606 M226.957 309.905 C 226.957 313.459,227.306 314.663,228.753 316.111 C 231.821 319.179,235.983 314.862,234.369 310.287 C 233.473 307.750,232.273 307.004,229.083 307.004 L 226.957 307.004 226.957 309.905 M231.786 309.432 C 232.812 310.458,233.224 311.939,232.844 313.234 C 231.656 317.273,228.610 315.206,228.606 310.359 L 228.605 308.652 229.806 308.652 C 230.851 308.652,231.107 308.753,231.786 309.432 " stroke="none" fill="#f45c2c" fill-rule="evenodd"></path><path id="path1" d="" stroke="none" fill="#f85c2c" fill-rule="evenodd"></path><path id="path2" d="" stroke="none" fill="#f85c2c" fill-rule="evenodd"></path><path id="path3" d="" stroke="none" fill="#f85c2c" fill-rule="evenodd"></path><path id="path4" d="" stroke="none" fill="#f85c2c" fill-rule="evenodd"></path></g></svg>