<?xml version="1.0" encoding="utf-8"?>
<!-- Generator: Adobe Illustrator 24.0.0, SVG Export Plug-In . SVG Version: 6.00 Build 0)  -->
<svg version="1.1" id="Layer_1" xmlns="http://www.w3.org/2000/svg" xmlns:xlink="http://www.w3.org/1999/xlink" x="0px" y="0px"
	 viewBox="0 0 792 792" style="enable-background:new 0 0 792 792;" xml:space="preserve">
<style type="text/css">
	.st0{fill-rule:evenodd;clip-rule:evenodd;fill:#000066;}
	.st1{fill-rule:evenodd;clip-rule:evenodd;fill:#2C5680;}
	.st2{fill:#FF0000;}
	.st3{fill-rule:evenodd;clip-rule:evenodd;fill:#FF0000;}
	.st4{fill-rule:evenodd;clip-rule:evenodd;}
	.st5{fill:#000066;}
	.st6{fill:#2C5680;}
	.st7{fill:#FFFFFF;}
</style>
<g>
	<path class="st6" d="M285.8,426.7l4.6,9.4l5-13.9C292,423.6,288.8,425.1,285.8,426.7L285.8,426.7z M292.7,440.9l5.6,11.4l7.3-17.1
		l-6.5-11.9L292.7,440.9z M295.8,455.9l-4.9-10l-5.6,15.7C287.8,459.6,291.3,457.7,295.8,455.9L295.8,455.9z M288.6,441.1l-3.4-7
		v3.4v13L288.6,441.1z M306.2,443.4l-4.4,10.5c1.4-0.4,2.9-0.9,4.4-1.3v3.6c0,0-14.1,3.2-19.9,9.1c-1.7,1.7-1.8,3.5,1.2,5.3
		c3.4,2.1,10.5,4.7,18.7,6v4.2c-6.8-1.4-12.4-2.9-16.4-4.5c-5.5-2.2-8.4-4.9-8.4-7.9v-30.8v-11.7l0,0c0-0.7,0.4-1.3,1-1.7
		c7.1-3.8,14.9-7.2,23.9-10.1v4c-1.6,0.5-3.2,1.1-4.8,1.7l4.8,8.7V443.4z M506.8,434.1l-3.4,7l3.4,9.5v-13V434.1z M501.1,445.9
		l-4.9,10c4.5,1.7,8,3.6,10.5,5.6L501.1,445.9z M493.7,452.3l5.6-11.4l-6.3-17.6l-6.5,11.9L493.7,452.3z M501.6,436l4.6-9.4
		c-3-1.6-6.2-3.1-9.5-4.5L501.6,436z M485.7,428.5l4.8-8.7c-1.6-0.6-3.2-1.1-4.8-1.7v-4c8.9,2.8,16.7,6.2,23.7,10
		c0.7,0.3,1.2,1,1.2,1.8v11.7v30.8c0,3-3,5.7-8.4,7.9c-4,1.6-9.6,3.2-16.4,4.5v-4.2c8.2-1.3,15.3-4,18.7-6c3-1.8,2.9-3.6,1.2-5.3
		c-5.8-5.9-19.9-9.1-19.9-9.1v-3.6c1.5,0.4,3,0.8,4.5,1.3l-4.5-10.5V428.5z"/>
	<path class="st6" d="M212,344.7c-0.4-1.5-0.8-3-1.2-4.6c0-3.8,0-7.7,0-11.5c0-3.8,0-7.6,0-11.5c0.4-0.6,0.7-1.1,1.1-1.7
		c1-0.2,2-0.3,3.1-0.5c0.2,0.4,0.5,0.7,0.7,1.1c0.7,3.7,1.3,7.4,2,11.1c0.7,3.7,1.3,7.3,2,10.9c-0.3,1.6-0.6,3.2-0.8,4.9
		c3.9-1,7.7-2,11.7-2.9c-0.5-1.5-1-3-1.5-4.5c-0.7-3.6-1.4-7.3-2.1-11c-0.7-3.7-1.3-7.4-2-11.1c1.6-2.3,3.1-4.6,4.7-6.8
		c0-5.5,0-11,0-16.5c0-5.5,0-11,0-16.5c-1.6-2-3.2-3.9-4.7-5.9c-8.3,0-16.5,0-24.7,0c0.4,1.7,0.8,3.4,1.2,5.2c0,11.7,0,23.3,0,35
		c0,11.7,0,23.3,0,35c-0.4,1.8-0.8,3.6-1.2,5.4C204.2,347,208,345.9,212,344.7L212,344.7z M211.9,302.7c-0.4-0.4-0.7-0.8-1.1-1.3
		c0-6.5,0-12.9,0-19.4c0.4-0.5,0.7-1,1.1-1.5c2.4-0.1,4.9-0.2,7.3-0.3c0.4,0.4,0.7,0.9,1.1,1.3c0,6.3,0,12.5,0,18.7
		c-0.4,0.5-0.8,1-1.1,1.5C216.7,302.1,214.3,302.4,211.9,302.7L211.9,302.7z M266.1,267.6c-6.3,0-12.6,0-18.8,0
		c-1.6,1.9-3.2,3.8-4.8,5.7c0,9.7,0,19.5,0,29.2c0,9.7,0,19.4,0,29.2c1.6,1.6,3.2,3.2,4.8,4.8c6.3-1.1,12.5-2.3,18.8-3.3
		c1.6-2.1,3.1-4.1,4.7-6.1c0-9,0-18.1,0-27.1c0-9,0-18.1,0-27.1C269.3,271.1,267.7,269.3,266.1,267.6L266.1,267.6z M261.3,280
		c0,6.9,0,13.9,0,20.8c0,6.9,0,13.9,0,20.8c-0.4,0.5-0.7,0.9-1.1,1.4c-2.4,0.3-4.8,0.7-7.2,1.1c-0.4-0.3-0.7-0.7-1.1-1.1
		c0-7.1,0-14.2,0-21.3c0-7.1,0-14.2,0-21.3c0.3-0.4,0.7-0.9,1.1-1.3c2.4-0.1,4.8-0.1,7.2-0.2C260.5,279.2,260.9,279.6,261.3,280
		L261.3,280z M313.6,267.6c-4,0-7.9,0-11.8,0c0.4,1.3,0.8,2.6,1.2,3.9c0,7.6,0,15.2,0,22.8c0,7.6,0,15.2,0,22.8
		c-0.4,0.4-0.8,0.8-1.1,1.2c-2.4,0.2-4.9,0.4-7.3,0.6c-0.4-0.3-0.8-0.7-1.1-1c0-7.7,0-15.5,0-23.2c0-7.7,0-15.5,0-23.2
		c0.4-1.3,0.8-2.7,1.2-4c-3.9,0-7.8,0-11.7,0c0.4,1.4,0.8,2.7,1.2,4.1c0,9,0,17.9,0,26.8c0,9,0,17.9,0,26.9c1.5,1.6,3.1,3.1,4.6,4.6
		c6.3-0.7,12.6-1.4,18.9-2c1.6-1.8,3.2-3.6,4.8-5.4c0-8.5,0-17,0-25.6s0-17,0-25.6C312.9,270.1,313.3,268.9,313.6,267.6L313.6,267.6
		z M335.6,322.1c0-5.3,0-10.6,0-15.9c0-5.3,0-10.6,0-15.9c2.3,5.8,4.5,11.7,6.8,17.4c2.3,5.8,4.6,11.5,6.9,17.3
		c3.5-0.1,7.1-0.3,10.6-0.4c-0.4-1.2-0.8-2.4-1.2-3.6c0-8.3,0-16.6,0-24.9c0-8.3,0-16.6,0-24.9c0.4-1.2,0.8-2.5,1.2-3.7
		c-4,0-7.9,0-11.9,0c0.4,1.2,0.8,2.5,1.2,3.7c0,5.2,0,10.5,0,15.7c0,5.2,0,10.5,0,15.7c-2.3-5.8-4.6-11.6-6.9-17.4
		c-2.3-5.9-4.5-11.7-6.8-17.6c-3.5,0-7,0-10.5,0c0.4,1.3,0.8,2.5,1.2,3.8c0,8.6,0,17.1,0,25.7c0,8.6,0,17.1,0,25.7
		c-0.4,1.3-0.8,2.5-1.2,3.8c3.9-0.3,7.7-0.5,11.7-0.8C336.4,324.6,336,323.4,335.6,322.1L335.6,322.1z M372.6,271.2
		c0,8.3,0,16.5,0,24.8c0,8.3,0,16.5,0,24.8c-0.3,1.2-0.7,2.4-1.1,3.7c8.2-0.1,16.4-0.2,24.7-0.3c1.6-1.5,3.2-3.1,4.8-4.7
		c0-7.9,0-15.7,0-23.6c0-7.9,0-15.8,0-23.7c-1.6-1.5-3.2-3.1-4.8-4.6c-8.3,0-16.5,0-24.7,0C371.9,268.8,372.2,270,372.6,271.2
		L372.6,271.2z M382,278c0.3-0.4,0.7-0.7,1.1-1.1c2.4,0,4.8,0,7.2,0c0.3,0.4,0.7,0.7,1.1,1.1c0,5.9,0,11.8,0,17.8
		c0,5.9,0,11.8,0,17.8c-0.4,0.4-0.7,0.8-1.1,1.1c-2.4,0-4.8,0-7.2,0c-0.4-0.4-0.8-0.7-1.1-1.1c0-5.9,0-11.8,0-17.8
		C382,289.9,382,283.9,382,278L382,278z M442.7,325.2c-0.4-1.2-0.8-2.4-1.2-3.7c0-2.8,0-5.7,0-8.5c0-2.8,0-5.7,0-8.5
		c0.3-0.4,0.7-0.7,1.1-1.1c1,0,2,0,3.1,0.1c0.2,0.3,0.5,0.6,0.7,0.9c0.7,2.9,1.3,5.9,2,8.8c0.7,2.9,1.3,5.9,2,8.8
		c-0.3,1.2-0.6,2.4-0.8,3.5c3.9,0.2,7.8,0.4,11.7,0.7c-0.5-1.3-1-2.7-1.5-4c-0.7-3.1-1.4-6.2-2.1-9.2c-0.7-3.1-1.3-6.1-2-9.2
		c1.6-1.6,3.2-3.2,4.8-4.7c0-4.4,0-8.9,0-13.3c0-4.4,0-8.9,0-13.3c-1.6-1.6-3.2-3.2-4.8-4.8c-8.3,0-16.5,0-24.7,0
		c0.4,1.2,0.8,2.5,1.2,3.7c0,8.3,0,16.6,0,24.9c0,8.3,0,16.6,0,25c-0.4,1.2-0.8,2.4-1.2,3.6C434.9,324.8,438.8,325,442.7,325.2
		L442.7,325.2z M442.6,293.8c-0.4-0.4-0.7-0.7-1.1-1.1c0-4.8,0-9.6,0-14.4c0.3-0.3,0.7-0.7,1.1-1c2.4,0,4.9,0,7.3,0.1
		c0.3,0.4,0.7,0.7,1.1,1.1c0,4.8,0,9.7,0,14.5c-0.4,0.4-0.7,0.7-1.1,1C447.5,293.9,445.1,293.8,442.6,293.8L442.6,293.8z
		 M496.9,267.6c-6.3,0-12.6,0-18.8,0c-1.6,1.6-3.2,3.2-4.8,4.9c0,8.3,0,16.6,0,24.9c0,8.3,0,16.6,0,24.9c1.6,1.8,3.2,3.5,4.8,5.3
		c6.3,0.6,12.5,1.2,18.8,1.9c1.6-1.5,3.1-3.1,4.7-4.6c0-8.7,0-17.4,0-26c0-8.7,0-17.4,0-26.1C500,270.9,498.5,269.3,496.9,267.6
		L496.9,267.6z M492,279c0,6.4,0,12.8,0,19.2c0,6.4,0,12.8,0,19.2c-0.4,0.3-0.7,0.7-1.1,1c-2.4-0.2-4.8-0.4-7.2-0.6
		c-0.4-0.4-0.7-0.8-1.1-1.2c0-6.3,0-12.6,0-18.9c0-6.3,0-12.6,0-18.9c0.4-0.4,0.7-0.7,1.1-1.1c2.4,0,4.8,0.1,7.2,0.1
		C491.3,278.3,491.7,278.6,492,279L492,279z M519.1,332.2c6.3,1,12.5,2,18.8,3.1c1.6-1.6,3.1-3.2,4.7-4.8c0-3.9,0-7.8,0-11.6
		c0.4-1.4,0.8-2.8,1.2-4.2c-4-0.5-7.9-1-11.8-1.4c0.4,1.4,0.8,2.9,1.2,4.4c0,1.5,0,2.9,0,4.3c-0.3,0.4-0.7,0.8-1,1.2
		c-2.5-0.3-4.9-0.7-7.4-1c-0.4-0.5-0.7-1-1.1-1.4c0-6.8,0-13.7,0-20.5c0-6.8,0-13.7,0-20.5c0.4-0.4,0.7-0.9,1.1-1.3
		c2.5,0.1,4.9,0.1,7.4,0.2c0.3,0.4,0.7,0.9,1,1.3c0,1.5,0,2.9,0,4.4c-0.4,1.4-0.9,2.8-1.2,4.2c3.9,0.2,7.9,0.4,11.8,0.7
		c-0.4-1.5-0.8-2.9-1.2-4.4c0-3.8,0-7.7,0-11.5c-1.6-1.9-3.1-3.7-4.7-5.6c-6.3,0-12.6,0-18.8,0c-1.6,1.8-3.2,3.5-4.8,5.2
		c0,8.9,0,17.8,0,26.8c0,8.9,0,17.8,0,26.7C515.9,328.2,517.5,330.2,519.1,332.2L519.1,332.2z M591.7,347.8
		c-1.2-2.4-2.3-4.8-3.4-7.2c-2-7.2-4-14.4-6-21.4c-1.9-7-4-13.8-5.9-20.6c1.8-4,3.6-8,5.3-12.1c1.8-4.1,3.6-8.3,5.4-12.6
		c1.2-2.1,2.3-4.2,3.6-6.3c-4.4,0-8.8,0-13.3,0c0.2,0.7,0.5,1.5,0.7,2.2c-2.1,5-4.2,9.9-6.3,14.7c-2.1,4.8-4.1,9.5-6.2,14.1
		c0-4.4,0-8.8,0-13.1s0-8.8,0-13.1c0.4-1.6,0.8-3.1,1.2-4.7c-3.9,0-7.8,0-11.7,0c0.4,1.5,0.8,3.1,1.2,4.6c0,10.3,0,20.7,0,31.1
		s0,20.7,0,31c-0.4,1.5-0.8,2.9-1.2,4.3c3.9,0.9,7.7,1.7,11.7,2.6c-0.4-1.7-0.8-3.3-1.2-5c0-4.9,0-9.7,0-14.6
		c1.6-3.3,3.2-6.7,4.8-10.1c1.4,4.8,2.8,9.6,4.2,14.5c1.4,4.9,2.9,9.9,4.3,14.9c-0.3,1-0.5,2.1-0.8,3.1
		C582.6,345.3,587.2,346.5,591.7,347.8L591.7,347.8z"/>
	<path class="st6" d="M200.3,251h106v-18c-14.4-5.1-23-10.5-23-18.4c0-7.9,14.1-16.9,36.7-22.5l70.3-59.9v-13c0-3.2,2.6-5.7,5.8-5.7
		l0,0c3.2,0,5.7,2.6,5.7,5.7v13l70.3,59.9c22.5,5.6,36.7,14.5,36.7,22.5c0,7.9-8.6,13.3-23,18.4v18h106v4.9H200.3V251z M330.5,543.3
		l-28.9,135.2h-20.1l33.6-157.4l0,0c-5.7-11.8-8.9-25-8.9-39v-25.8l7.9-1.6l0,0c0.8-0.2,1.6-0.3,2.5-0.5c0.9-0.2,1.8-0.4,2.8-0.5
		l0.7-0.1l0,0c19.9-3.7,46.6-6,75.9-6c23.8,0,45.7,1.5,63.8,4v26.6v6.7c0,32.1-16.8,60.2-42.1,76c32.4-13.6,55.1-45.5,55.1-82.7
		v-24.5c0.9,0.2,1.7,0.3,2.5,0.5c0.8,0.2,1.6,0.3,2.5,0.5l0,0l7.9,1.6V482c0,13.9-3.2,27-8.8,38.8l33.7,157.7h-20.1l-28.9-135.3
		c-3.7,4-7.7,7.6-12.1,10.8l0,0l11.8,124.5h-19.5l-10.8-113.9l0,0c-10.8,4.6-22.7,7.1-35.1,7.1c-12.4,0-24.3-2.5-35-7.1h0
		l-10.8,113.8h-19.5L342.5,554l0,0C338.2,550.8,334.2,547.2,330.5,543.3L330.5,543.3z M364.1,363v-6.5l-3.1-3.1h-12.6l-3.3,3.1v15.8
		l3.3,3.2h8.6l0.7,0.7v7.9l-0.7,0.7h-4.8l-0.7-0.7v-2.5l0.8-2.4h-7.8l0.7,2.4v6.3l3.3,3.1h12.6l3.1-3.1v-15.7l-3.1-3.1h-8.7
		l-0.7-0.7v-7.9l0.7-0.7h4.8l0.7,0.7v2.5l-0.7,2.4h7.9L364.1,363z M393.7,388.6l-7.7-33l0.7-2.2H378l0.7,2.2l-7.7,33l-1.2,2.5h7.9
		l-0.5-1.5l1.4-5.8l0.7-0.7h6.2l0.7,0.7l1.4,5.8l-0.6,1.5h7.9L393.7,388.6z M379.9,376.3l2.4-12.1l2.4,12.1l-0.6,0.5h-3.7
		L379.9,376.3z M401.9,355.8v32.9l-0.8,2.4h7.8l-0.8-2.4v-12.6l0.7-0.7h3.2l2.4,0.8v-7.9l-2.4,0.8h-3.2l-0.7-0.7v-8l0.7-0.7h9.7
		l2.6,0.7l-1.1-6.9h-18.9L401.9,355.8z M446.4,391.1l1.1-7.1l-2.6,0.7h-9.7l-0.7-0.7v-8.1l0.7-0.7h3.2l2.4,0.8v-7.9l-2.4,0.8h-3.2
		l-0.7-0.7v-7.8l0.7-0.7h9.7l2.6,0.7l-1.1-6.9h-18.8l0.8,2.4v32.9l-0.8,2.4H446.4z M200.3,360.9c14-7.2,38.4-13.4,69.5-17.8
		c35.3-5,79.3-8,126.2-8s90.9,2.9,126.2,8c31.1,4.5,55.6,10.6,69.5,17.8v5.6c-12.8-7.5-37.7-13.9-70.2-18.6
		c-11.1-1.6-23.1-3-35.8-4.1v70.3c-6.8-2.2-14.1-4-22.1-5.6c-18.6-3.6-40.7-5.5-67.6-5.5s-49.1,1.9-67.6,5.5
		c-8,1.5-15.4,3.4-22.1,5.6v-70.3c-12.7,1.1-24.6,2.5-35.8,4.1c-32.5,4.6-57.4,11.1-70.2,18.6V360.9z M368.8,236.2l-2.3-3l-7.9-19.3
		l7.1-12.4l2.4-3h-8.8l0.5,1.1l-8.3,14.8V201l0.8-2.4h-7.8l0.8,2.4v32.8l-0.8,2.4h7.8l-0.8-2.4v-7.5l3.2-5.5l5.7,13.8l-0.5,1.6
		H368.8z M393.8,236.2l1.1-7.1l-2.6,0.7h-9.7l-0.7-0.7V221l0.7-0.7h3.2l2.4,0.8v-7.9l-2.4,0.8h-3.2l-0.7-0.7v-7.8l0.7-0.7h9.7
		l2.6,0.7l-1.1-7H375l0.8,2.4v32.9l-0.8,2.4H393.8z M420.3,236.2l1.1-7.1l-2.6,0.7h-9.7l-0.7-0.7V221l0.7-0.7h3.2l2.4,0.8v-7.9
		l-2.4,0.8h-3.2l-0.7-0.7v-7.8l0.7-0.7h9.7l2.6,0.7l-1.1-7h-18.8l0.8,2.4v32.9l-0.8,2.4H420.3z M434.9,233.9v-11.1l0.7-0.7h8.7
		l3.2-3.2v-17.2l-3.2-3.1h-16.5l0.8,2.4v32.9l-0.8,2.4h7.8L434.9,233.9z M434.9,215v-9.4l0.7-0.7h4.8l0.7,0.7v9.4l-0.7,0.7h-4.8
		L434.9,215z M317.4,416.9l-7.6,18l7.3,13.2l9.8-17.5L317.4,416.9z M320.2,414.2l8.7,12.7l9-16.1c-3,0.5-5.9,1-8.8,1.5
		C326,412.8,323.1,413.5,320.2,414.2L320.2,414.2z M331.3,430.4l9.9,14.5l10.8-17.6L341.5,412L331.3,430.4z M338,446.9l-8.7-12.7
		l-8.5,15.3C326,448.5,331.8,447.6,338,446.9L338,446.9z M367.6,409.3l-11,17.9l10.8,15.7l11.9-17.3L367.6,409.3z M354.4,430.7
		l-9.4,15.3c6-0.6,12.3-1.1,18.9-1.5L354.4,430.7z M354.2,423.7l9.7-15.9c-6.8,0.5-13.3,1.1-19.4,1.9L354.2,423.7z M371,407.4
		l10.7,14.9l10.7-15.5C384.8,406.9,377.7,407.1,371,407.4L371,407.4z M392.3,443.7L381.7,429l-10.5,15.2
		C378,443.9,385.1,443.7,392.3,443.7L392.3,443.7z M474.6,416.9l7.6,18l-7.2,13.2l-9.8-17.5L474.6,416.9z M471.8,414.2l-8.7,12.7
		l-9-16.1c3,0.5,5.9,1,8.8,1.5C466,412.8,468.9,413.5,471.8,414.2L471.8,414.2z M460.7,430.4l-10,14.5l-10.8-17.6l10.5-15.3
		L460.7,430.4z M454,446.9l8.7-12.7l8.5,15.3C466,448.5,460.2,447.6,454,446.9L454,446.9z M424.4,409.3l11,17.9l-10.8,15.7
		l-11.9-17.3L424.4,409.3z M437.6,430.7l9.4,15.3c-6-0.6-12.4-1.1-18.9-1.5L437.6,430.7z M437.8,423.7l-9.7-15.9
		c6.8,0.5,13.3,1.1,19.4,1.9L437.8,423.7z M421,407.4l-10.7,14.9l-10.7-15.5C407.1,406.9,414.3,407.1,421,407.4L421,407.4z
		 M399.7,443.7l10.5-14.7l10.5,15.2C414,443.9,406.9,443.7,399.7,443.7L399.7,443.7z M396,408.3l12,17.4l-12,16.7l-12-16.7
		L396,408.3z M306.2,452.6v-9.3l1.7-3.9l6.2,11.3C311.3,451.3,308.7,451.9,306.2,452.6L306.2,452.6z M306.2,428.5v-10.4
		c2.4-0.8,4.9-1.5,7.5-2.3l-6.3,14.9L306.2,428.5z M485.7,418.1v10.4l-1.2,2.2l-6.3-14.9C480.8,416.5,483.3,417.3,485.7,418.1
		L485.7,418.1z M485.7,443.4v9.3c-2.5-0.7-5.1-1.3-7.9-1.9l6.2-11.3L485.7,443.4z"/>
	<path class="st6" d="M497.2,386.2l-1.2,1.2v2.5l1.2,1.2h2.5l1.2-1.2v-2.5l-1.2-1.2H497.2z M513,369.7h-7.1l-1.8,1.8v17.9l1.8,1.8
		h7.1l1.8-1.8v-17.9L513,369.7z M511.1,373.7v13.4l-0.4,0.4H508l-0.4-0.4v-13.4l0.4-0.4h2.7L511.1,373.7z M522.6,391.1l-0.4-1.4
		v-6.3l0.4-0.4h1.2l0.3,0.3l1.5,6.4l-0.3,1.3h4.4l-0.6-1.4l-1.5-6.7l1.8-1.8v-9.7l-1.8-1.8h-9.3l0.5,1.4v18.7l-0.5,1.4H522.6z
		 M522.6,379.5l-0.4-0.4v-5.3l0.4-0.4h2.8l0.4,0.4v5.3l-0.4,0.4H522.6z M534.9,391.1h7.1l1.8-1.8V381l0.4-1.4h-5.8l0.8,3.6h1v3.9
		l-0.4,0.4h-2.8l-0.4-0.4v-13.4l0.4-0.4h2.8l0.4,0.4v1.4l-0.5,1.3h4.5l-0.4-1.3v-3.6l-1.8-1.8h-7.1l-1.8,1.8v17.9L534.9,391.1z"/>
</g>
</svg>
